<?xml version="1.0" encoding="UTF-8"?>
<svg width="91px" height="83px" viewBox="0 0 91 83" version="1.1" xmlns="http://www.w3.org/2000/svg" xmlns:xlink="http://www.w3.org/1999/xlink">
    <!-- Generator: Sketch 52.2 (67145) - http://www.bohemiancoding.com/sketch -->
    <title>Group 2</title>
    <desc>Created with Sketch.</desc>
    <defs>
        <linearGradient x1="-12.0388617%" y1="1.21379425%" x2="155.65304%" y2="90.7901921%" id="linearGradient-1">
            <stop stop-color="#F57B94" offset="0%"></stop>
            <stop stop-color="#E3486A" offset="100%"></stop>
        </linearGradient>
        <linearGradient x1="-12.0388617%" y1="1.21379425%" x2="155.65304%" y2="90.7901921%" id="linearGradient-2">
            <stop stop-color="#F6B4C2" offset="0%"></stop>
            <stop stop-color="#F6708E" offset="100%"></stop>
        </linearGradient>
    </defs>
    <g id="Website" stroke="none" stroke-width="1" fill="none" fill-rule="evenodd">
        <g id="Dialog" transform="translate(-671.000000, -277.000000)">
            <g id="Group-2" transform="translate(671.000000, 277.000000)">
                <path d="M65.7743544,72 L55.7580829,82.0162715 C55.3675586,82.4067958 54.7343936,82.4067958 54.3438693,82.0162715 C54.156333,81.8287351 54.0509761,81.5743812 54.0509761,81.3091647 L54.0509761,72 L8,72 C3.581722,72 5.41083001e-16,68.418278 0,64 L0,15 C-5.41083001e-16,10.581722 3.581722,7 8,7 L77,7 C81.418278,7 85,10.581722 85,15 L85,64 C85,68.418278 81.418278,72 77,72 L65.7743544,72 Z" id="Combined-Shape" fill="#FCEBF0"></path>
                <path d="M61.4045295,74.6627181 L71.5672476,64.5 L83,64.5 C87.1421356,64.5 90.5,61.1421356 90.5,57 L90.5,8 C90.5,3.85786438 87.1421356,0.5 83,0.5 L14,0.5 C9.85786438,0.5 6.5,3.85786438 6.5,8 L6.5,57 C6.5,61.1421356 9.85786438,64.5 14,64.5 L60.5509761,64.5 L60.5509761,74.3091647 C60.5509761,74.4417729 60.6036545,74.5689499 60.6974227,74.6627181 C60.8926849,74.8579802 61.2092674,74.8579802 61.4045295,74.6627181 Z" id="Combined-Shape" stroke="#E98699" fill="#FFFFFF"></path>
                <path d="M33.9999681,23.0689655 L27.6000319,23.0689655 C26.7201867,23.0689655 26,23.7615874 26,24.6154756 L26,52.453675 C26,53.3071931 26.7170279,54 27.6000319,54 L33.9999681,54 C34.8829721,54 35.6,53.3071006 35.6,52.453675 L35.6,24.6154756 C35.6,23.7615874 34.8797176,23.0689655 33.9999681,23.0689655 Z" id="Shape" fill="url(#linearGradient-1)" fill-rule="nonzero"></path>
                <path d="M70.1164949,22.6740071 C69.8659927,22.6313388 58.136777,22.6740071 58.136777,22.6740071 L59.7750911,18.179615 C60.9055148,15.0754978 60.1736427,10.3358567 57.0370613,8.65083398 C56.0157903,8.10213488 54.5888957,7.82656892 53.4384653,8.1177612 C52.7787103,8.28469149 52.198889,8.72391276 51.8532853,9.31237944 C51.4558504,9.98917694 51.4968873,10.7791951 51.3553517,11.5296328 C50.9964413,13.4330497 50.1020033,15.2428023 48.71689,16.6011694 C46.3019448,18.9695396 38.8,25.8020785 38.8,25.8020785 L38.8,50.8275862 L64.7242772,50.8275854 C68.2223745,50.829644 70.5148603,46.9015423 68.7895405,43.8332627 C70.8461336,42.5087682 71.5495311,39.7189552 70.3450362,37.5769327 C72.4017224,36.2524382 73.1050268,33.4626252 71.9005319,31.3206028 C75.4490647,29.0353234 74.2627154,23.3791565 70.1164949,22.6740071 Z" id="Shape" fill="url(#linearGradient-2)" fill-rule="nonzero"></path>
            </g>
        </g>
    </g>
</svg>