<svg width="546" height="721" viewBox="0 0 546 721" fill="none" xmlns="http://www.w3.org/2000/svg">
<path fill-rule="evenodd" clip-rule="evenodd" d="M204.882 22.3048C206.069 19.992 207.405 17.825 208.863 15.8205C204.401 16.4337 201.194 18.1231 198.657 20.4427C197.13 21.8384 195.824 23.4801 194.63 25.3055C196.697 26.4381 198.708 27.7796 200.625 29.3479C200.96 29.6226 201.296 29.8873 201.631 30.1422C202.53 27.3739 203.624 24.7558 204.882 22.3048ZM210.949 12.6146C211.113 12.606 211.276 12.5986 211.438 12.5925C218.375 4.6575 227.371 0 236.257 0C240.855 0 244.334 0.825959 246.932 2.22677C249.551 3.63899 251.197 5.59447 252.17 7.69573C254.075 11.8114 253.333 16.3304 252.85 18.2661C252.09 21.3088 249.817 23.5752 247.169 24.5214C244.492 25.4775 241.338 25.1074 238.981 22.7504C237.051 20.8212 236.682 18.4158 236.946 16.4171C237.201 14.4879 238.072 12.71 238.98 11.8001C239.565 11.2137 240.514 11.2127 241.101 11.7978C241.687 12.383 241.688 13.3327 241.103 13.9192C240.749 14.2735 240.107 15.397 239.92 16.8099C239.743 18.1533 240.004 19.5308 241.102 20.6291C242.529 22.0564 244.421 22.3174 246.159 21.6963C247.926 21.0652 249.438 19.5458 249.939 17.539C250.372 15.8068 250.914 12.1245 249.447 8.95591C248.734 7.41502 247.53 5.95758 245.508 4.86743C243.465 3.76587 240.511 3 236.257 3C229.096 3 221.599 6.46853 215.426 12.7023C221.653 13.3139 226.11 15.9818 229.323 19.5666C233.191 23.8811 235.163 29.4199 236.437 33.8803C236.661 34.6614 236.221 35.4782 235.447 35.7228C235.084 35.8373 234.708 35.9578 234.32 36.0824L234.315 36.0839L234.313 36.0847C227.128 38.3886 215.608 42.083 203.39 34.9315C202.264 39.5668 201.693 44.6024 201.824 49.9647C203.801 49.3442 205.977 48.9088 208.362 48.6816C219.343 47.6359 226.356 51.235 230.479 56.1562C234.524 60.9828 235.671 66.9498 235.222 70.544C234.526 76.1127 231.314 79.5257 227.475 80.4855C223.694 81.4306 219.549 79.9064 217.31 76.1752C215.753 73.5801 215.911 70.6407 216.904 68.3436C217.869 66.1122 219.8 64.1231 222.195 63.8238C223.017 63.721 223.766 64.3041 223.869 65.1261C223.972 65.9482 223.389 66.6978 222.567 66.8006C221.598 66.9217 220.375 67.8761 219.658 69.5342C218.969 71.1266 218.917 73.0226 219.883 74.6317C221.428 77.2077 224.221 78.2065 226.747 77.575C229.215 76.9582 231.68 74.6947 232.245 70.1719C232.594 67.3837 231.675 62.2545 228.18 58.0829C224.764 54.0059 218.763 50.7047 208.647 51.6681C206.142 51.9067 203.929 52.3898 201.977 53.0743C202.492 60.0504 204.189 67.5322 207.372 75.3679C211.425 85.3464 216.263 93.7608 221.152 101.626C222.538 103.856 223.933 106.05 225.317 108.225L225.322 108.232L225.324 108.237L225.325 108.238C228.799 113.699 232.203 119.05 235.21 124.582C243.191 139.269 248.484 155.421 245.9 179.619C247.661 177.502 249.494 175.357 251.355 173.18L251.355 173.18L251.355 173.179L251.356 173.179L251.356 173.179L251.356 173.178L251.357 173.178L251.357 173.178L251.357 173.177L251.357 173.177L251.358 173.177L251.358 173.176L251.358 173.176L251.358 173.176L251.359 173.175L251.359 173.175L251.359 173.175L251.36 173.174L251.36 173.174L251.36 173.174L251.36 173.173L251.361 173.173C253.151 171.078 254.967 168.953 256.768 166.796C261.732 160.85 266.632 154.601 270.792 147.854C265.399 138.755 261.307 128.661 260.13 117.183C258.853 104.736 259.8 95.6169 262.002 88.4823C264.087 81.7242 267.272 76.8345 270.604 72.6513C269.86 71.7681 269.106 70.9004 268.353 70.035L268.353 70.0346L268.353 70.0342L268.352 70.0338L268.352 70.0333L268.352 70.0329L268.351 70.0325L268.351 70.0321L268.351 70.0317C262.487 63.2874 256.739 56.6759 256.739 43.8737C256.739 37.8008 259.098 32.4678 261.872 28.2255C263.96 25.0312 266.888 22.4009 269.015 20.4892L269.016 20.4889L269.016 20.4883C269.714 19.8612 270.326 19.3115 270.794 18.8446C271.197 18.4418 271.773 18.3167 272.283 18.4689C272.794 18.3167 273.369 18.4418 273.773 18.8446C274.221 19.2913 274.81 19.8394 275.497 20.4771L275.497 20.4772C276.941 21.8189 278.297 23.5573 279.877 25.5831C280.5 26.381 281.157 27.2235 281.868 28.1039C285.268 32.3136 288.351 37.6924 288.351 43.8737C288.351 56.6759 282.603 63.2874 276.739 70.0317L276.739 70.0321L276.738 70.0325L276.738 70.0329L276.738 70.0333L276.737 70.0338L276.737 70.0342L276.736 70.0346L276.736 70.035C275.984 70.9004 275.229 71.7681 274.485 72.6513C277.818 76.8345 281.002 81.7242 283.088 88.4823C285.29 95.6169 286.237 104.736 284.96 117.183C283.783 128.661 279.69 138.755 274.298 147.854C278.458 154.601 283.358 160.85 288.321 166.796C290.122 168.953 291.937 171.076 293.727 173.171L293.729 173.173C295.857 175.663 297.95 178.112 299.94 180.524C297.279 156.194 302.583 140.294 310.605 125.87C313.54 120.591 316.858 115.481 320.248 110.259L320.248 110.258L320.249 110.257L320.251 110.254C321.716 107.997 323.195 105.719 324.662 103.398C329.548 95.6672 334.384 87.3429 338.435 77.3679C341.918 68.7935 343.622 60.6428 343.945 53.1147C341.965 52.4089 339.715 51.9113 337.161 51.6681C327.044 50.7047 321.043 54.0059 317.627 58.0829C314.132 62.2545 313.214 67.3837 313.562 70.1719C314.128 74.6947 316.593 76.9582 319.06 77.575C321.586 78.2065 324.379 77.2077 325.925 74.6317C326.89 73.0226 326.838 71.1266 326.15 69.5342C325.432 67.8761 324.21 66.9217 323.241 66.8006C322.419 66.6978 321.836 65.9482 321.938 65.1261C322.041 64.3041 322.791 63.721 323.613 63.8238C326.008 64.1231 327.938 66.1122 328.903 68.3436C329.896 70.6407 330.054 73.5801 328.497 76.1752C326.259 79.9064 322.114 81.4306 318.333 80.4855C314.493 79.5257 311.282 76.1127 310.586 70.544C310.136 66.9498 311.284 60.9828 315.328 56.1562C319.451 51.235 326.464 47.6359 337.445 48.6816C339.837 48.9094 342.018 49.3466 344 49.9699C343.963 45.3502 343.402 40.9876 342.417 36.9315C330.199 44.083 318.679 40.3886 311.495 38.0847L311.486 38.0819C311.098 37.9575 310.723 37.8371 310.361 37.7228C309.586 37.4782 309.147 36.6614 309.37 35.8803C310.644 31.4199 312.617 25.8811 316.484 21.5666C319.697 17.9818 324.155 15.3139 330.381 14.7023C324.208 8.46853 316.711 5 309.551 5C305.296 5 302.342 5.76587 300.299 6.86743C298.277 7.95758 297.073 9.41502 296.36 10.9559C294.893 14.1246 295.435 17.8068 295.868 19.539C296.369 21.5458 297.882 23.0652 299.648 23.6963C301.387 24.3174 303.278 24.0564 304.705 22.6291C305.804 21.5308 306.065 20.1533 305.887 18.8099C305.701 17.397 305.058 16.2735 304.704 15.9192C304.119 15.3327 304.12 14.383 304.707 13.7978C305.293 13.2127 306.243 13.2137 306.828 13.8001C307.736 14.71 308.607 16.4879 308.862 18.4171C309.126 20.4158 308.756 22.8212 306.827 24.7504C304.47 27.1074 301.315 27.4775 298.639 26.5214C295.99 25.5752 293.718 23.3088 292.958 20.2661C292.474 18.3304 291.732 13.8114 293.638 9.69573C294.61 7.59447 296.256 5.63899 298.875 4.22677C301.474 2.82596 304.953 2 309.551 2C318.436 2 327.433 6.6575 334.37 14.5925C334.532 14.5986 334.695 14.606 334.859 14.6146C341.181 14.9476 345.694 17.0464 349.175 20.2284C351.007 21.903 352.531 23.8585 353.879 25.9563C359.553 23.384 365.523 22.2664 371.061 22.2511C379.481 22.2278 387.175 24.7602 391.344 28.9289C394.655 32.2402 397.462 35.3836 400.297 42.4606C401.718 46.0063 403.146 50.5415 404.667 56.5914C414.209 55.5275 424.304 54.4664 435.005 58.8728C443.311 62.2931 447.876 69.6553 450.167 77.7093C468.436 82.412 481.655 90.3264 491.088 99.9827C501.411 110.549 507.118 123.117 510.004 135.627C514.507 155.142 512.168 174.612 509.714 186.447C524.158 195.032 536.673 208.374 542.435 224.224C547.708 238.728 547.277 255.201 537.707 271.845C543.636 286.057 545.354 301.992 542.309 315.998C540.778 323.038 538.036 329.612 534.006 335.226C534.177 339.049 533.871 342.715 533.152 346.226C530.742 357.99 523.732 367.794 514.913 375.811C513.445 377.146 511.924 378.433 510.363 379.674C509.507 388.035 507.754 395.606 505.101 402.203C501.108 412.136 495.063 419.871 487.012 424.715C484.482 434.998 478.816 443.171 472.007 449.476C467.423 453.722 462.32 457.124 457.305 459.773C456.859 463.921 456.044 467.589 454.95 470.822C479.675 465.599 496.376 465.629 507.035 469.288C512.557 471.184 516.511 474.073 519.073 477.753C521.631 481.429 522.712 485.768 522.712 490.416C522.712 499.947 516.915 506.451 509.997 509.337C503.169 512.185 494.893 511.632 489.877 506.615C481.42 498.158 488.285 486.142 497.491 487.675C498.308 487.811 498.86 488.584 498.724 489.401C498.588 490.218 497.815 490.77 496.998 490.634C491.067 489.646 485.318 497.813 491.998 504.494C495.901 508.397 502.763 509.104 508.842 506.568C514.831 504.07 519.712 498.545 519.712 490.416C519.712 486.234 518.743 482.532 516.61 479.467C514.48 476.406 511.102 473.856 506.061 472.125C495.931 468.648 479.312 468.56 453.656 474.168C452.586 476.607 451.347 478.754 449.991 480.635C444.442 488.335 437.04 491.454 431.78 491.912C431.131 491.968 430.52 491.6 430.267 491C420.092 466.834 421.745 451.574 430.709 441.934C432.143 440.392 433.751 439.01 435.503 437.77C435.818 434.53 436.329 431.341 437.075 428.274C439.323 419.032 443.749 410.763 451.477 405.634C451.788 397.336 453.314 390.484 456.909 384.325C460.822 377.618 467.095 371.889 476.536 365.99C477.298 365.513 478.082 365.035 478.888 364.555C478.417 357.465 478.72 351.071 480.28 344.701C482.806 334.387 488.593 324.285 499.395 311.413C488.949 276.665 470.213 254.676 448.525 241.359C429.717 229.811 407.178 224.714 385.66 223.578C364.144 222.442 343.759 225.273 329.342 229.478C328.547 229.709 327.714 229.253 327.482 228.458C327.25 227.662 327.707 226.829 328.502 226.598C342.498 222.516 361.873 219.726 382.481 220.437C378.293 219.013 374.144 217.228 370.461 214.874C366.294 212.211 362.664 208.786 360.239 204.283C359.529 202.963 358.926 201.56 358.445 200.066C353.607 202.35 348.484 203.693 343.457 204.395C332.868 205.872 322.585 204.523 315.956 203.026C315.148 202.843 314.641 202.04 314.823 201.232C315.006 200.424 315.809 199.917 316.617 200.1C323.023 201.546 332.923 202.836 343.043 201.424C348.018 200.729 353.017 199.387 357.676 197.108C357.099 194.233 356.934 191.06 357.252 187.556C358.263 176.438 365.222 169.371 375.443 165.364C376.801 164.831 378.22 164.351 379.694 163.921C380.119 161.344 380.455 158.747 380.793 156.143V156.143C381.11 153.696 381.427 151.244 381.82 148.8C382.625 143.785 383.756 138.832 385.935 134.19C383.696 133.67 381.367 133.063 378.942 132.362C360.624 127.065 346.117 128.13 335.789 131.624C325.379 135.146 319.356 141.069 317.683 145.343C317.566 145.643 317.363 145.883 317.114 146.048C316.681 147.454 316.331 148.821 316.067 150.143C312.988 165.545 314.953 174.789 318.969 180.009C322.947 185.18 329.261 186.802 335.905 186.198C342.389 185.609 345.996 182.712 347.786 179.128C349.624 175.448 349.665 170.803 348.475 166.639C347.047 161.641 343.05 159.183 339.156 158.781C335.1 158.363 331.86 160.145 331.188 162.828C330.621 165.094 330.884 166.581 331.374 167.504C331.86 168.421 332.665 168.967 333.566 169.192C334.495 169.424 335.45 169.294 336.12 168.935C336.755 168.595 337.063 168.11 337.063 167.509C337.063 166.681 337.735 166.009 338.563 166.009C339.392 166.009 340.063 166.681 340.063 167.509C340.063 169.421 338.952 170.821 337.537 171.579C336.158 172.318 334.432 172.501 332.839 172.102C331.217 171.697 329.657 170.669 328.724 168.91C327.794 167.158 327.585 164.868 328.278 162.099C329.475 157.319 334.706 155.306 339.464 155.797C344.383 156.305 349.544 159.46 351.359 165.815C352.692 170.481 352.733 175.938 350.47 180.468C348.16 185.093 343.567 188.514 336.176 189.186C328.944 189.843 321.422 188.118 316.591 181.838C311.797 175.607 309.978 165.299 313.125 149.555C316.264 133.849 330.469 112.782 352.202 96.8981C352.194 96.6563 352.244 96.4091 352.36 96.1775C356.037 88.8233 358.461 78.1175 356.799 69.0516C355.973 64.5454 354.152 60.5174 351.054 57.4731C349.874 56.3139 348.492 55.2809 346.881 54.4133C346.424 61.9603 344.646 70.0503 341.215 78.4969C337.067 88.7076 332.127 97.2022 327.198 105.001C325.688 107.39 324.186 109.703 322.71 111.976L322.706 111.983L322.704 111.985L322.703 111.987L322.701 111.99L322.701 111.991L322.701 111.991C319.338 117.17 316.11 122.142 313.227 127.328C305.009 142.106 299.734 158.382 303.467 184.51C303.487 184.65 303.487 184.788 303.469 184.922C303.966 185.562 304.452 186.2 304.926 186.835C308.522 191.65 311.536 196.453 313.38 201.353C313.792 201.456 314.158 201.733 314.361 202.144L347.625 269.5H446.5C446.982 269.5 447.434 269.731 447.716 270.122C447.998 270.513 448.075 271.015 447.924 271.472L434.811 311L447.924 350.528C448.075 350.985 447.998 351.487 447.716 351.878C447.434 352.269 446.982 352.5 446.5 352.5H323.032C322.231 360.6 321.922 369.154 322.272 378.09C323.063 398.27 326.739 413.964 331.48 425.859C331.598 425.877 331.717 425.91 331.832 425.958C334.21 426.949 338.45 428.144 343.37 428.794C348.289 429.444 353.772 429.534 358.67 428.404C362.503 427.521 366.342 425.435 370.299 422.804C372.27 421.493 374.242 420.067 376.24 418.61L376.836 418.176L376.838 418.175L376.842 418.171L376.849 418.166C378.643 416.859 380.459 415.534 382.284 414.282C390.328 408.762 399.161 404.177 408.794 408.304C418.792 412.588 422.95 420.374 422.95 427.862C422.95 435.224 418.905 442.313 412.598 445.115C410.543 446.027 406.145 447.035 401.855 446.303C399.683 445.933 397.466 445.103 395.604 443.518C393.726 441.919 392.298 439.628 391.603 436.501C391.035 433.946 391.154 431.762 391.833 429.968C392.515 428.164 393.725 426.855 395.156 426.016C397.934 424.386 401.595 424.5 403.99 426.096C404.679 426.555 404.865 427.486 404.406 428.176C403.947 428.865 403.015 429.051 402.326 428.592C400.937 427.666 398.514 427.523 396.674 428.603C395.796 429.118 395.063 429.906 394.639 431.028C394.211 432.16 394.061 433.731 394.532 435.85C395.099 438.4 396.212 440.096 397.548 441.233C398.901 442.385 400.573 443.041 402.36 443.346C405.989 443.965 409.789 443.08 411.38 442.373C416.427 440.131 419.95 434.244 419.95 427.862C419.95 421.608 416.538 414.886 407.613 411.062C399.585 407.622 392.021 411.238 383.982 416.755C382.19 417.985 380.405 419.286 378.603 420.601L378.602 420.602L378.007 421.035C376.01 422.491 373.991 423.952 371.96 425.302C367.914 427.992 363.712 430.32 359.344 431.328C353.976 432.566 348.106 432.446 342.977 431.768C339.156 431.263 335.682 430.44 333.055 429.593C339.979 445.094 348.6 453.308 353.933 456.12H401.506C402.138 456.12 402.703 456.516 402.917 457.111L425.623 520.184C425.9 520.953 425.509 521.803 424.745 522.094L420.75 523.613C420.659 523.942 420.457 524.24 420.16 524.446C420.894 524.211 421.698 524.574 422 525.298C423.936 529.945 428.052 536.936 434.172 543.07C435.742 541.097 437.278 539.381 438.804 537.89C446.073 530.787 453.076 528.811 462.136 528.164C482.914 526.679 496.029 537.269 501.335 545.226C501.715 545.797 501.66 546.552 501.201 547.062C497.062 551.662 483.474 559.935 460.914 558.91C450.169 558.422 441.325 553.567 434.539 547.541C429.518 554.432 423.923 564.242 416.911 578.265C408.516 595.055 394.545 603.01 381.259 604.316C378.78 625.055 373.199 639.718 365.75 649.741C357.805 660.432 347.799 665.754 337.423 667.551C327.087 669.341 316.45 667.625 307.156 664.375C298.056 661.192 290.137 656.5 284.926 652.029C289.649 662.46 290.725 673.209 289.752 683.163C288.262 698.405 281.971 711.827 276.593 719.571C276.307 719.983 275.835 720.224 275.334 720.215C274.832 720.206 274.369 719.947 274.098 719.525C255.522 690.546 257.331 665.522 263.576 649.608C262.791 650.343 262.003 651.057 261.212 651.749C256.007 656.303 247.949 661.125 238.658 664.375C229.364 667.625 218.727 669.341 208.391 667.551C198.015 665.754 188.009 660.432 180.064 649.741C172.617 639.721 167.038 625.064 164.558 604.336C151.208 603.095 137.132 595.145 128.692 578.265C121.681 564.242 116.086 554.432 111.064 547.541C104.279 553.567 95.4341 558.422 84.69 558.91C62.1291 559.935 48.5419 551.662 44.4022 547.062C43.9436 546.552 43.8888 545.797 44.2691 545.226C49.5741 537.269 62.6897 526.679 83.4673 528.164C92.5275 528.811 99.531 530.787 106.799 537.89C108.326 539.381 109.861 541.097 111.431 543.07C117.552 536.936 121.667 529.945 123.603 525.298C123.922 524.534 124.8 524.172 125.565 524.491C126.33 524.809 126.691 525.688 126.373 526.452C124.27 531.498 119.849 538.969 113.268 545.474C118.535 552.637 124.277 562.726 131.375 576.924C139.202 592.577 152.048 599.955 164.22 601.287C164.187 600.962 164.154 600.635 164.123 600.307C161.739 575.677 159.228 560.815 153.818 550.064C148.464 539.425 140.191 532.67 125.773 524.52C125.663 524.458 125.564 524.384 125.476 524.301L119.671 522.094C118.906 521.803 118.515 520.953 118.792 520.184L141.498 457.111C141.713 456.516 142.277 456.12 142.91 456.12H190.482C195.799 453.317 204.382 445.145 211.295 429.737C208.729 430.532 205.434 431.292 201.83 431.768C196.702 432.446 190.831 432.566 185.463 431.328C181.096 430.32 176.893 427.992 172.847 425.302C170.817 423.952 168.798 422.491 166.8 421.035L166.206 420.602L166.203 420.6C164.401 419.286 162.617 417.985 160.826 416.755C152.786 411.238 145.222 407.622 137.195 411.062C128.269 414.886 124.858 421.608 124.857 427.862C124.857 434.244 128.38 440.131 133.427 442.373C135.018 443.08 138.819 443.965 142.448 443.346C144.234 443.041 145.907 442.385 147.259 441.233C148.596 440.096 149.709 438.4 150.276 435.85C150.746 433.731 150.596 432.16 150.169 431.028C149.744 429.906 149.012 429.118 148.133 428.603C146.293 427.523 143.87 427.666 142.482 428.592C141.792 429.051 140.861 428.865 140.401 428.176C139.942 427.486 140.128 426.555 140.818 426.096C143.212 424.5 146.873 424.386 149.651 426.016C151.082 426.855 152.293 428.164 152.975 429.968C153.653 431.762 153.772 433.946 153.204 436.501C152.509 439.628 151.082 441.919 149.204 443.518C147.341 445.103 145.125 445.933 142.952 446.303C138.663 447.035 134.264 446.027 132.209 445.115C125.903 442.313 121.857 435.224 121.857 427.862C121.858 420.374 126.016 412.588 136.013 408.304C145.646 404.177 154.48 408.762 162.523 414.282C164.351 415.536 166.17 416.863 167.967 418.173L167.968 418.174L167.969 418.174L167.969 418.175L167.971 418.176L168.567 418.61C170.566 420.067 172.538 421.493 174.509 422.804C178.465 425.435 182.305 427.521 186.137 428.404C191.036 429.534 196.518 429.444 201.437 428.794C206.293 428.152 210.486 426.98 212.881 425.997C217.647 414.085 221.349 398.348 222.143 378.09C222.494 369.154 222.185 360.6 221.383 352.5H99.5C99.0182 352.5 98.5658 352.269 98.2838 351.878C98.0018 351.487 97.9246 350.985 98.0763 350.528L111.189 311L98.0763 271.472C97.9246 271.015 98.0018 270.513 98.2838 270.122C98.5658 269.731 99.0182 269.5 99.5 269.5H196.888L231.094 203.134C232.833 197.613 236.133 192.232 240.163 186.835C240.861 185.9 241.584 184.961 242.329 184.016C242.332 183.98 242.335 183.945 242.34 183.909C246.073 157.781 240.799 141.15 232.574 126.014C229.62 120.579 226.301 115.363 222.85 109.937L222.849 109.935C221.45 107.737 220.03 105.505 218.604 103.21C213.677 95.2835 208.738 86.704 204.592 76.4969C201.451 68.7634 199.696 61.3289 199.071 54.3364C197.398 55.2196 195.969 56.2795 194.754 57.4731C191.655 60.5174 189.835 64.5454 189.009 69.0516C187.346 78.1175 189.77 88.8233 193.447 96.1774C193.563 96.4091 193.614 96.6563 193.605 96.8981C212.619 110.794 225.869 128.656 230.991 143.426C231.121 143.702 231.24 143.977 231.346 144.248C231.418 144.433 231.452 144.623 231.45 144.81C231.964 146.436 232.376 148.021 232.683 149.555C235.83 165.299 234.01 175.607 229.216 181.838C224.385 188.118 216.863 189.843 209.631 189.186C202.24 188.514 197.647 185.093 195.337 180.468C193.075 175.938 193.115 170.48 194.448 165.815C196.264 159.46 201.424 156.305 206.344 155.797C211.102 155.306 216.332 157.319 217.529 162.099C218.223 164.868 218.013 167.158 217.084 168.91C216.151 170.669 214.59 171.697 212.969 172.102C211.375 172.501 209.649 172.318 208.27 171.579C206.855 170.821 205.744 169.421 205.744 167.509C205.744 166.681 206.416 166.009 207.244 166.009C208.073 166.009 208.744 166.681 208.744 167.509C208.744 168.11 209.052 168.595 209.687 168.935C210.358 169.294 211.312 169.424 212.241 169.192C213.143 168.967 213.947 168.421 214.433 167.504C214.923 166.581 215.187 165.094 214.619 162.828C213.947 160.145 210.708 158.363 206.652 158.781C202.757 159.183 198.761 161.641 197.333 166.639C196.143 170.803 196.184 175.448 198.021 179.128C199.811 182.712 203.418 185.609 209.903 186.198C216.547 186.802 222.86 185.18 226.839 180.009C230.855 174.789 232.82 165.545 229.741 150.143C229.385 148.363 228.874 146.499 228.212 144.571C226.156 140.378 220.245 134.937 210.447 131.622C200.119 128.128 185.612 127.063 167.294 132.36C164.869 133.061 162.54 133.668 160.3 134.188C162.479 138.83 163.611 143.783 164.416 148.798C164.808 151.242 165.126 153.693 165.443 156.139L165.443 156.14L165.443 156.14L165.443 156.14L165.443 156.14L165.443 156.141C165.786 158.79 166.129 161.434 166.565 164.055C167.877 164.45 169.145 164.886 170.365 165.364C180.585 169.371 187.544 176.438 188.555 187.556C188.866 190.981 188.715 194.089 188.17 196.912C192.94 199.31 198.079 200.708 203.193 201.422C213.313 202.834 223.213 201.544 229.619 200.098C230.427 199.915 231.23 200.422 231.412 201.23C231.595 202.038 231.088 202.841 230.28 203.024C223.65 204.521 213.368 205.871 202.779 204.393C197.623 203.673 192.366 202.279 187.42 199.887C186.929 201.447 186.307 202.91 185.568 204.283C183.143 208.786 179.513 212.211 175.346 214.874C171.655 217.233 167.496 219.022 163.298 220.447C183.721 219.7 202.898 222.511 216.906 226.597C217.701 226.829 218.158 227.662 217.926 228.457C217.694 229.252 216.861 229.709 216.066 229.477C187.125 221.036 135.957 218.226 98.2826 241.359C76.411 254.788 57.5424 277.037 47.1493 312.296C57.4783 324.75 63.0595 334.624 65.5272 344.701C67.0455 350.9 67.3731 357.122 66.9557 363.986C68.1034 364.658 69.2082 365.325 70.2714 365.989C79.712 371.889 85.9856 377.618 89.8988 384.324C93.5956 390.659 95.1043 397.726 95.3545 406.345C102.453 411.509 106.585 419.448 108.732 428.274C109.422 431.11 109.911 434.05 110.23 437.039C112.403 438.461 114.376 440.081 116.099 441.934C125.062 451.574 126.715 466.833 116.54 490.999C116.287 491.599 115.676 491.968 115.028 491.912C109.767 491.454 102.365 488.334 96.8168 480.635C95.4608 478.753 94.2212 476.606 93.1515 474.169C67.4952 468.56 50.8763 468.648 40.7468 472.125C35.7052 473.856 32.327 476.406 30.1971 479.467C28.0642 482.532 27.0955 486.234 27.0955 490.416C27.0955 498.545 31.9765 504.07 37.9654 506.568C44.0445 509.104 50.9065 508.397 54.8095 504.494C61.4898 497.813 55.7406 489.646 49.8094 490.634C48.9922 490.77 48.2194 490.218 48.0833 489.401C47.9472 488.584 48.4993 487.811 49.3165 487.675C58.5226 486.142 65.3878 498.158 56.9308 506.615C51.914 511.632 43.6388 512.185 36.8105 509.337C29.892 506.451 24.0955 499.947 24.0955 490.416C24.0955 485.768 25.1767 481.429 27.7347 477.753C30.2959 474.073 34.2498 471.184 39.7728 469.288C50.4309 465.629 67.1321 465.599 91.8572 470.822C90.8123 467.732 90.0211 464.246 89.5643 460.323C84.2104 457.601 78.7084 454.022 73.8004 449.476C66.8297 443.021 61.0562 434.609 58.6208 423.978C51.1536 419.104 45.5029 411.646 41.706 402.203C39.1444 395.831 37.421 388.551 36.5356 380.529C34.5903 379.027 32.7024 377.455 30.8945 375.811C22.0749 367.794 15.0655 357.99 12.6555 346.226C11.8531 342.309 11.5655 338.198 11.8798 333.891C8.35029 328.581 5.90966 322.487 4.49852 315.997C1.52484 302.321 3.09345 286.805 8.68867 272.85C-1.44956 255.865 -2.00643 239.02 3.37222 224.224C9.13435 208.374 21.6497 195.032 36.0933 186.447C33.6392 174.612 31.3005 155.142 35.8031 135.627C38.6895 123.117 44.3966 110.549 54.7191 99.9827C64.0569 90.4243 77.1041 82.5727 95.0859 77.8533C97.1554 68.9841 101.764 60.5946 110.803 56.8728C121.504 52.4664 131.599 53.5275 141.141 54.5914C142.661 48.5415 144.09 44.0063 145.51 40.4606C148.345 33.3836 151.152 30.2401 154.464 26.9289C158.632 22.7602 166.326 20.2278 174.746 20.2511C180.285 20.2664 186.254 21.384 191.929 23.9563C193.277 21.8585 194.8 19.903 196.633 18.2284C200.114 15.0464 204.627 12.9476 210.949 12.6146ZM315.694 211.618L344.279 269.5H298.027L298.215 269.198C309.969 250.391 318.679 234.517 315.694 211.618ZM345.761 272.5H349.106H443H444.422L431.807 310.528C431.705 310.834 431.705 311.166 431.807 311.472L444.422 349.5H443H323.353H320.334H287.096H284.08H265.241H262.239H224.082H221.062H105H101.578L114.193 311.472C114.295 311.166 114.295 310.834 114.193 310.528L101.578 272.5H105H195.342H198.717H248.916H252.432H292.657H296.174H345.761ZM295.671 267.608C295.285 268.226 294.893 268.857 294.497 269.5H250.593C250.321 269.06 250.052 268.625 249.785 268.196C249.662 267.999 249.54 267.803 249.418 267.608C236.832 247.471 228.295 231.51 233.219 206.887C233.393 206.016 233.614 205.146 233.881 204.275L234.283 203.495C234.427 203.216 234.474 202.912 234.438 202.622C236.12 198.055 238.972 193.444 242.567 188.63C245.815 184.28 249.59 179.863 253.562 175.215L253.563 175.215L253.563 175.214L253.564 175.213C255.369 173.101 257.215 170.941 259.071 168.718C263.745 163.12 268.443 157.166 272.545 150.709C276.647 157.166 281.344 163.12 286.018 168.718C287.874 170.942 289.72 173.101 291.526 175.214L291.526 175.215L291.527 175.215C295.5 179.863 299.275 184.28 302.523 188.63C307.238 194.945 310.676 200.912 311.871 206.887C316.795 231.51 308.257 247.471 295.671 267.608ZM246.874 269.198L247.063 269.5H200.263L229.187 213.382C226.863 235.341 235.424 250.878 246.874 269.198ZM225.141 378.207C225.493 369.239 225.191 360.647 224.398 352.5H262.157C262.138 356.773 262.539 361.116 263.443 365.446C259.994 372.251 257.195 381.338 257.828 393.365C258.413 404.484 262.229 417.325 268.333 427.735C269.614 429.92 271.005 432.012 272.498 433.967C267.506 439.904 261.628 443.93 255.255 444.78C250.824 445.371 247.686 444.467 245.576 442.927C243.457 441.379 242.215 439.072 241.796 436.559C240.931 431.37 243.577 426.055 248.21 425.025C254.53 423.62 256.739 427.918 256.491 429.655C256.374 430.476 256.944 431.235 257.764 431.353C258.584 431.47 259.344 430.9 259.461 430.08C260.053 425.931 255.584 420.313 247.56 422.096C240.84 423.59 237.81 430.888 238.837 437.052C239.364 440.216 240.96 443.27 243.807 445.349C246.665 447.436 250.622 448.424 255.652 447.753C262.823 446.797 269.172 442.432 274.419 436.337C279.666 442.432 286.015 446.797 293.186 447.753C298.216 448.424 302.173 447.436 305.031 445.349C307.878 443.27 309.474 440.216 310.001 437.052C311.028 430.888 307.998 423.59 301.278 422.096C293.254 420.313 288.784 425.931 289.377 430.08C289.494 430.9 290.254 431.47 291.074 431.353C291.894 431.235 292.464 430.476 292.347 429.655C292.099 427.918 294.308 423.62 300.628 425.025C305.261 426.055 307.907 431.37 307.042 436.559C306.623 439.072 305.381 441.379 303.261 442.927C301.152 444.467 298.014 445.371 293.583 444.78C287.21 443.93 281.332 439.904 276.339 433.967C277.833 432.012 279.224 429.92 280.505 427.735C286.609 417.325 290.425 404.484 291.01 393.365C291.591 382.328 289.282 373.767 286.232 367.174C287.3 362.246 287.619 357.319 287.344 352.5H320.018C319.225 360.647 318.923 369.239 319.274 378.207C321.305 429.991 342.143 453.583 352.9 458.961C353.108 459.065 353.338 459.12 353.571 459.12H400.451L422.301 519.813L272.208 576.874L257.368 571.232C257.128 571.043 256.834 570.931 256.528 570.913L208.487 552.649C208.229 552.269 207.802 552.012 207.309 551.991C207.158 551.984 207.012 552 206.873 552.036L122.114 519.813L143.964 459.12H190.845C191.077 459.12 191.307 459.065 191.515 458.961C202.272 453.583 223.11 429.991 225.141 378.207ZM265.76 361.317C265.335 358.366 265.142 355.418 265.156 352.5H272.038C271.698 352.956 271.327 353.443 270.93 353.964L270.929 353.965L270.929 353.965L270.928 353.966C269.44 355.919 267.594 358.34 265.76 361.317ZM277.908 353.964C277.511 353.443 277.14 352.956 276.8 352.5H284.341C284.545 355.895 284.437 359.341 283.961 362.797C281.846 359.131 279.637 356.232 277.908 353.965L277.908 353.964ZM185.393 195.374C185.742 193.097 185.819 190.592 185.567 187.828C184.686 178.132 178.735 171.868 169.27 168.157C168.591 167.891 167.894 167.638 167.181 167.399C168.559 174.127 170.83 180.665 175.623 186.736C178.483 190.359 181.802 193.189 185.393 195.374ZM163.93 166.428C165.348 173.993 167.766 181.625 173.268 188.595C176.61 192.828 180.517 196.045 184.717 198.46C184.258 200.049 183.653 201.511 182.927 202.86C180.802 206.806 177.583 209.884 173.731 212.346C166.006 217.284 155.973 219.612 147.739 221.524L147.617 221.552C147.41 221.6 147.224 221.688 147.063 221.807C129.917 224.088 112.623 229.193 97.3749 238.399C78.5684 230.504 62.0985 229.869 48.3828 234.1L48.3831 234.063C48.5185 218.363 44.8645 206.504 42.2269 197.945L42.2268 197.944C41.7459 196.383 41.2987 194.932 40.9145 193.588C40.496 192.123 39.999 190.22 39.488 187.952C42.1457 186.468 44.8646 185.149 47.6139 184.012C59.0123 179.295 73.5881 174.585 88.9909 170.91C88.1435 174.601 88.1177 178.716 88.8448 182.484C89.7466 187.157 91.8734 191.61 95.4045 193.964C95.6589 194.134 96.0973 194.584 96.796 195.448C97.1921 195.938 97.613 196.484 98.0835 197.095L98.0837 197.095L98.0854 197.097C98.4182 197.529 98.7757 197.993 99.1669 198.493C101.01 200.844 103.399 203.713 106.411 206.195C109.43 208.682 113.115 210.816 117.555 211.65C122.011 212.487 127.109 211.99 132.9 209.402C133.28 209.232 133.572 208.913 133.707 208.52C133.842 208.127 133.808 207.695 133.612 207.328C131.354 203.081 125.647 195.753 116.745 193.774C114.111 193.189 111.414 192.804 108.91 192.445L108.909 192.445C108.65 192.408 108.393 192.372 108.138 192.335C105.381 191.938 102.927 191.557 100.92 190.962C98.8914 190.361 97.5776 189.612 96.865 188.662C96.2122 187.792 95.8714 186.485 96.4304 184.25C97.6156 179.509 100.298 175.316 103.315 172.148C106.363 168.947 109.596 166.955 111.738 166.419C111.763 166.413 111.788 166.406 111.813 166.399C118.785 165.32 125.694 164.547 132.332 164.171C144.214 163.497 155.118 164.099 163.93 166.428ZM163.377 163.195C163.012 160.853 162.714 158.528 162.42 156.242L162.42 156.24L162.42 156.239L162.42 156.239L162.42 156.239L162.42 156.238L162.42 156.238C162.116 153.867 161.817 151.537 161.454 149.273C160.628 144.127 159.481 139.278 157.288 134.846C141.723 138.033 130.772 136.858 122.849 134.007C114.632 131.049 109.796 126.309 106.658 123.233L106.658 123.232C106.167 122.751 105.718 122.311 105.304 121.925C105.007 121.647 104.835 121.261 104.828 120.854C104.821 120.448 104.979 120.055 105.267 119.768C106.729 118.305 108.915 117.042 111.446 116.034C113.999 115.017 117.002 114.221 120.184 113.745C126.521 112.798 133.762 113.095 139.716 115.647C148.781 119.533 154.475 124.524 158.148 130.272C158.395 130.659 158.632 131.048 158.861 131.44C161.276 130.896 163.807 130.245 166.46 129.478C185.298 124.031 200.435 125.068 211.408 128.78C216.628 130.546 220.94 132.933 224.247 135.534C217.551 122.869 205.579 108.843 189.515 97.6657C175.517 87.9258 158.485 80.4022 139.262 77.8476C137.156 88.3098 129.708 96.0693 121.243 100.73C112.713 105.427 102.835 107.15 95.8181 105.113C95.2777 104.956 94.8706 104.51 94.7636 103.958C93.601 97.9508 93.0634 89.408 94.4341 81.1353C77.646 85.7671 65.5339 93.2054 56.8651 102.079C47.0045 112.173 41.5164 124.208 38.7263 136.301C34.4682 154.757 36.5161 173.255 38.8372 184.886C41.341 183.524 43.8923 182.305 46.4669 181.24C58.5001 176.26 74.017 171.29 90.3432 167.511C90.5124 167.395 90.7062 167.313 90.9144 167.274L93.7445 166.743C105.814 164.092 118.221 162.127 129.903 161.318C125.089 156.006 116.535 149.107 107.322 143.882C102.111 140.926 96.7589 138.547 91.8254 137.29C86.8657 136.026 82.5084 135.941 79.1532 137.34C75.9111 138.691 74.4641 141.185 74.1254 143.701C73.7728 146.32 74.6363 148.817 75.8522 150.033C79.7486 153.927 86.7574 150.103 84.7217 143.999C84.4596 143.214 84.8842 142.364 85.6701 142.102C86.456 141.84 87.3055 142.264 87.5676 143.05C90.5779 152.076 79.9268 158.347 73.7314 152.154C71.7289 150.153 70.7003 146.658 71.1522 143.301C71.6181 139.84 73.6725 136.374 77.9991 134.571C78.6057 134.318 79.2307 134.106 79.8719 133.933C77.6023 132.082 75.2245 129.509 73.3057 126.575C70.4991 122.285 68.4879 116.935 69.5367 111.69C70.697 105.889 73.651 102.174 77.5156 98.3095C77.8721 97.9529 78.3839 97.7994 78.8778 97.9008C79.3717 98.0022 79.7817 98.3449 79.9689 98.8131C81.2226 101.947 82.8629 106.129 83.5244 110.065C84.1714 113.914 83.983 118.158 80.7747 120.725C79.514 121.733 79.0089 122.857 78.9075 124.002C78.8011 125.203 79.1326 126.544 79.7742 127.899C80.4112 129.243 81.3092 130.506 82.1995 131.505C83.0184 132.424 83.7379 133.017 84.1526 133.27C84.1765 133.284 84.2003 133.297 84.224 133.31L84.2492 133.324C86.8984 133.255 89.7106 133.655 92.5661 134.383C97.8424 135.727 103.449 138.236 108.802 141.272C119.225 147.183 128.953 155.249 133.664 161.097C144.546 160.573 154.767 161.123 163.377 163.195ZM362.881 202.86C362.186 201.571 361.603 200.178 361.152 198.67C365.492 196.233 369.529 192.953 372.967 188.597C378.499 181.59 380.913 173.914 382.328 166.311C391.06 164.079 401.796 163.508 413.475 164.171C420.113 164.547 427.023 165.32 433.995 166.399L434.012 166.404L434.027 166.408L434.039 166.411L434.06 166.417L434.07 166.419C436.212 166.955 439.444 168.947 442.493 172.148C445.509 175.316 448.192 179.509 449.377 184.25C449.936 186.485 449.595 187.792 448.942 188.662C448.23 189.612 446.916 190.361 444.887 190.962C442.88 191.557 440.426 191.938 437.669 192.335L437.213 192.4L436.898 192.445L436.898 192.445L436.895 192.446L436.895 192.446C434.391 192.804 431.695 193.189 429.062 193.774C420.16 195.753 414.453 203.081 412.195 207.328C412 207.695 411.966 208.127 412.101 208.52C412.236 208.913 412.528 209.232 412.907 209.402C418.698 211.99 423.797 212.487 428.252 211.65C432.692 210.816 436.377 208.682 439.396 206.195C442.408 203.713 444.798 200.844 446.64 198.493C447.028 197.998 447.382 197.538 447.712 197.11L447.715 197.106L447.716 197.105L447.721 197.098L447.722 197.097L447.724 197.095L447.724 197.095C448.194 196.484 448.615 195.938 449.011 195.448C449.71 194.584 450.148 194.134 450.403 193.964C453.934 191.61 456.061 187.157 456.962 182.484C457.69 178.716 457.664 174.601 456.816 170.91C472.219 174.585 486.795 179.295 498.193 184.012C500.943 185.149 503.662 186.468 506.319 187.952C505.808 190.22 505.311 192.123 504.893 193.588C504.509 194.932 504.062 196.383 503.581 197.944L503.581 197.944L503.58 197.945C500.958 206.457 497.33 218.23 497.422 233.801C483.909 229.904 467.783 230.696 449.432 238.4C433.977 229.072 416.214 223.963 398.623 221.727C398.492 221.648 398.347 221.588 398.19 221.552L398.068 221.524C389.835 219.612 379.801 217.284 372.077 212.346C368.224 209.884 365.005 206.806 362.881 202.86ZM376.538 168.157C377.362 167.834 378.212 167.531 379.086 167.247C377.712 174.03 375.443 180.62 370.613 186.738C367.649 190.492 364.193 193.394 360.452 195.61C360.071 193.271 359.98 190.688 360.24 187.828C361.122 178.132 367.072 171.868 376.538 168.157ZM452.063 166.744C439.993 164.092 427.587 162.127 415.904 161.318C420.719 156.006 429.272 149.107 438.485 143.882C443.696 140.926 449.048 138.547 453.982 137.29C458.942 136.026 463.299 135.941 466.654 137.34C469.896 138.691 471.343 141.185 471.682 143.701C472.035 146.32 471.171 148.817 469.955 150.033C466.059 153.927 459.05 150.103 461.086 143.999C461.348 143.214 460.923 142.364 460.137 142.102C459.351 141.84 458.502 142.264 458.24 143.05C455.229 152.076 465.881 158.347 472.076 152.154C474.078 150.153 475.107 146.658 474.655 143.301C474.189 139.84 472.135 136.374 467.808 134.571C467.202 134.318 466.577 134.106 465.936 133.933C468.205 132.082 470.583 129.509 472.502 126.575C475.308 122.285 477.32 116.935 476.271 111.69C475.11 105.889 472.156 102.174 468.292 98.3095C467.935 97.9529 467.424 97.7994 466.93 97.9008C466.436 98.0022 466.026 98.3449 465.838 98.8131C464.585 101.947 462.945 106.129 462.283 110.065C461.636 113.914 461.824 118.158 465.033 120.725C466.293 121.733 466.798 122.857 466.9 124.002C467.006 125.203 466.675 126.544 466.033 127.899C465.396 129.243 464.498 130.506 463.608 131.505C462.789 132.424 462.07 133.017 461.655 133.27L461.608 133.296L461.564 133.321L461.558 133.324C458.909 133.255 456.097 133.655 453.241 134.383C447.965 135.727 442.358 138.236 437.005 141.272C426.582 147.183 416.854 155.249 412.143 161.097C401.449 160.582 391.392 161.104 382.875 163.089C383.234 160.784 383.527 158.494 383.816 156.242C384.12 153.87 384.418 151.54 384.782 149.275C385.608 144.129 386.755 139.28 388.948 134.848C404.513 138.035 415.464 136.86 423.387 134.009C431.604 131.051 436.439 126.311 439.578 123.234C440.068 122.754 440.517 122.313 440.931 121.927C441.229 121.649 441.401 121.263 441.408 120.856C441.415 120.45 441.256 120.057 440.969 119.77C439.507 118.307 437.321 117.044 434.79 116.036C432.236 115.019 429.234 114.223 426.052 113.747C419.715 112.8 412.474 113.097 406.52 115.649C397.454 119.535 391.761 124.526 388.088 130.274C387.841 130.661 387.604 131.05 387.375 131.442C384.96 130.898 382.429 130.247 379.775 129.48C360.938 124.033 345.8 125.07 334.828 128.782C329.206 130.684 324.638 133.306 321.244 136.14C327.875 123.318 339.971 109.022 356.292 97.6657C370.2 87.9884 387.103 80.499 406.175 77.8975C406.272 78.4112 406.37 78.9313 406.469 79.4579C408.467 90.1172 415.994 98.0116 424.565 102.73C433.094 107.427 442.973 109.15 449.989 107.113C450.53 106.956 450.937 106.51 451.044 105.958C452.305 99.4388 452.831 89.9333 450.98 81.0277C467.973 85.6514 480.206 93.1363 488.942 102.079C498.803 112.173 504.291 124.208 507.081 136.301C511.339 154.757 509.291 173.255 506.97 184.886C504.466 183.524 501.915 182.305 499.34 181.24C487.307 176.26 471.79 171.29 455.464 167.511C455.295 167.395 455.101 167.313 454.893 167.274L452.063 166.744ZM97.6312 80.3015C96.117 88.1363 96.4922 96.4564 97.5387 102.461C103.536 103.836 112.103 102.338 119.796 98.1024C127.668 93.7679 134.323 86.7312 136.273 77.4926C125.342 76.3487 113.732 76.8197 101.594 79.3946C100.246 79.6805 98.9256 79.983 97.6312 80.3015ZM136.838 74.535C125.54 73.3262 113.531 73.7955 100.972 76.4599C100.099 76.6451 99.2363 76.8372 98.3845 77.036C100.483 69.2796 104.64 62.6549 111.945 59.6469C121.73 55.6175 130.971 56.4833 140.423 57.5304C139.294 62.2857 138.11 67.8864 136.838 74.535ZM139.824 74.8954C158.531 77.411 175.205 84.5048 189.093 93.7493C186.179 86.323 184.525 76.872 186.058 68.5106C186.966 63.5559 189.009 58.9114 192.651 55.3331C194.378 53.637 196.438 52.2056 198.86 51.098C198.599 44.6888 199.293 38.6859 200.732 33.2064C200.064 32.7294 199.395 32.2179 198.725 31.6698C196.922 30.1946 195.027 28.9354 193.075 27.8753C192.503 28.8898 191.947 29.9453 191.393 31.0333C190.945 31.9115 190.5 32.8111 190.048 33.724L190.045 33.7293L190.044 33.7322L190.043 33.7338L190.043 33.734C186.288 41.3167 182.081 49.8122 172.594 54.5557C162.582 59.5618 152.874 58.8874 143.428 57.8629C142.301 62.5799 141.11 68.1837 139.824 74.8954ZM10.687 276.012C5.94199 288.914 4.73803 302.979 7.43003 315.36C8.49654 320.265 10.1704 324.894 12.4714 329.081C13.7329 321.759 16.7096 313.901 21.7895 305.492C23.8928 302.011 25.8233 298.619 27.5929 295.315C25.8143 293.492 23.9553 291.611 22.0127 289.669C17.4835 285.139 13.7318 280.575 10.687 276.012ZM14.7581 337.753C14.7876 340.478 15.0777 343.101 15.5945 345.624C17.8361 356.566 24.3873 365.841 32.9126 373.592C33.9672 374.55 35.0507 375.485 36.1582 376.394C35.6105 368.87 35.7567 360.755 36.5966 352.175C34.4859 351.222 32.2996 350.247 30.035 349.246C23.8407 346.509 18.7671 342.556 14.7581 337.753ZM39.8653 382.995C40.7914 389.668 42.3377 395.732 44.4895 401.084C47.6516 408.948 52.1113 415.264 57.8477 419.74C57.1543 414.68 57.1977 409.161 58.1748 403.158C58.6662 400.14 59.1487 397.267 59.6131 394.525C53.0588 391.35 46.2351 387.522 39.8653 382.995ZM62.2768 426.084C64.87 434.774 69.8834 441.76 75.8388 447.275C80.0178 451.145 84.6601 454.288 89.2515 456.771C88.9883 452.446 89.1079 447.643 89.6997 442.317C90.08 438.894 90.4389 435.656 90.7631 432.585C86.0559 431.5 81.0322 430.715 75.8743 430.096C70.8809 429.497 66.3467 428.133 62.2768 426.084ZM92.7973 461.874C93.9216 469.309 96.3382 474.839 99.2507 478.881C103.883 485.309 109.851 488.092 114.21 488.789C123.719 465.661 121.538 452.189 113.902 443.977C112.887 442.886 111.767 441.876 110.551 440.941C111.044 449.328 110.329 457.899 109.07 465.457C109.003 465.857 108.777 466.214 108.442 466.445C108.108 466.675 107.694 466.761 107.296 466.681C103.32 465.886 98.2171 464.323 92.7973 461.874ZM107.387 438.798C108.109 447.039 107.548 455.661 106.36 463.407C102.404 462.48 97.4983 460.833 92.3786 458.368C91.9707 453.794 92.0224 448.579 92.6814 442.648C93.0438 439.386 93.3884 436.279 93.7029 433.315C95.1157 433.692 96.4945 434.1 97.8339 434.544C101.343 435.707 104.555 437.104 107.387 438.798ZM106.974 435.127C106.685 433.034 106.303 430.979 105.817 428.983C103.981 421.435 100.697 414.836 95.3865 410.209C95.324 416.081 94.7912 422.703 94.0174 430.295C95.6441 430.719 97.2337 431.185 98.7775 431.696C101.674 432.656 104.428 433.785 106.974 435.127ZM92.3863 407.951L92.3865 407.965C92.4572 414.139 91.9211 421.216 91.0744 429.579C86.3234 428.502 81.311 427.727 76.2318 427.117C70.6316 426.445 65.6482 424.743 61.2889 422.11C60.1835 416.595 60.0264 410.456 61.1358 403.64C61.5751 400.942 62.0091 398.351 62.4305 395.858C71.6435 400.117 80.0968 403.062 85.6939 404.83C88.1699 405.612 90.3938 406.664 92.3863 407.951ZM92.2696 404.385C91.8593 397.033 90.3872 391.113 87.3077 385.836C83.736 379.715 77.91 374.301 68.6816 368.534C68.0375 368.131 67.3774 367.727 66.7009 367.322C66.6204 368.208 66.5292 369.107 66.4284 370.018C65.7003 376.599 64.4557 383.928 63.0129 392.424L62.9505 392.791C72.2598 397.147 80.8809 400.164 86.5973 401.969C88.644 402.615 90.5313 403.427 92.2696 404.385ZM63.8323 365.646C63.7289 366.961 63.5994 368.307 63.4466 369.688C62.7394 376.081 61.5431 383.158 60.1362 391.442C53.176 388.026 45.9614 383.872 39.3851 378.929C38.6214 371.145 38.6479 362.615 39.4856 353.487C49.197 357.925 57.2219 361.881 63.8323 365.646ZM64.0397 362.319C64.311 356.262 63.9339 350.807 62.6134 345.414C60.3877 336.326 55.4531 327.285 46.1526 315.813C43.9772 323.806 42.2257 332.443 40.9573 341.769C40.9559 341.78 40.9543 341.79 40.9526 341.801C40.4955 344.696 40.113 347.542 39.8045 350.335C49.3478 354.678 57.3546 358.587 64.0397 362.319ZM43.8234 312.998C41.3499 321.681 39.3796 331.113 37.9868 341.349C37.5768 343.947 37.2254 346.51 36.9325 349.036C35.0923 348.208 33.1978 347.364 31.2475 346.502C24.3879 343.471 18.9799 338.82 14.9591 333.083C15.7132 325.222 18.6066 316.562 24.3572 307.044C26.3085 303.814 28.1143 300.658 29.7837 297.574C35.2303 303.225 39.8764 308.316 43.8234 312.998ZM44.8405 309.561C55.1366 276.046 73.1304 254.102 94.2449 240.363C76.3873 233.296 60.9864 233.099 48.3035 237.274C47.6717 252.738 43.3245 271.693 31.265 294.788C36.4455 300.141 40.9466 305.024 44.8405 309.561ZM45.2479 238.384C44.4692 252.944 40.2727 270.794 29.0605 292.524C27.4787 290.908 25.8372 289.25 24.134 287.547C19.1523 282.566 15.1582 277.563 12.0421 272.587C12.1796 272.263 12.3193 271.94 12.4614 271.617C18.6501 257.581 29.1343 245.504 43.3133 239.199C43.9503 238.916 44.5952 238.644 45.2479 238.384ZM45.3677 235.124C44.2571 235.536 43.1659 235.982 42.0943 236.458C27.4467 242.972 16.6476 255.252 10.1662 269.406C1.53257 253.809 1.34364 238.585 6.1917 225.249C11.5694 210.456 23.2023 197.833 36.7741 189.539C37.2249 191.47 37.6581 193.11 38.0299 194.412C38.4296 195.811 38.8881 197.301 39.3766 198.889C42.0097 207.448 45.5143 218.839 45.3832 234.038C45.3801 234.397 45.375 234.76 45.3677 235.124ZM92.3027 170.139C91.2002 173.689 91.0324 177.987 91.7905 181.916C92.1025 183.532 92.5617 185.042 93.1509 186.387C93.1408 185.497 93.265 184.542 93.52 183.522C94.8576 178.171 97.8517 173.534 101.142 170.079C101.849 169.337 102.576 168.643 103.312 168.002L94.3427 169.684C93.6616 169.833 92.9815 169.985 92.3027 170.139ZM280.883 650.577C279.855 648.605 278.682 646.649 277.353 644.717C275.851 643.113 274.367 641.435 272.907 639.688C272.066 640.695 271.217 641.678 270.362 642.637C269.13 644.636 267.924 646.951 266.834 649.555C269.011 654.321 271.711 657.991 274.1 660.059C276.315 658.141 278.798 654.846 280.883 650.577ZM273.191 663.167C270.58 661.27 267.767 657.836 265.39 653.395C260.434 668.173 259.673 690.281 275.397 715.949C280.22 708.351 285.451 696.333 286.767 682.871C287.674 673.59 286.722 663.641 282.501 653.962C280.191 658.128 277.508 661.352 275.008 663.167L274.999 663.174L274.991 663.18L274.988 663.182L274.978 663.189C274.468 663.557 273.76 663.578 273.222 663.189L273.213 663.183C273.206 663.178 273.198 663.172 273.191 663.167ZM282.809 646.004C281.765 644.984 280.727 643.926 279.697 642.831C278.326 640.855 276.799 638.904 275.103 636.986C278.517 632.666 281.78 627.974 284.816 622.988C286.208 630.447 285.407 637.672 283.518 643.866C283.296 644.595 283.059 645.308 282.809 646.004ZM262.928 626.07C265.395 629.904 267.993 633.544 270.685 636.953C269.777 638.088 268.857 639.384 267.953 640.831C266.908 641.998 265.853 643.127 264.79 644.217C264.754 644.101 264.717 643.984 264.682 643.866C263.053 638.53 262.234 632.428 262.928 626.07ZM139.618 529.677C147.228 535.169 152.589 540.947 156.498 548.715C162.197 560.04 164.731 575.452 167.109 600.018C167.157 600.514 167.206 601.007 167.258 601.496C169.278 601.552 171.265 601.443 173.193 601.18C180.392 600.194 186.701 597.061 190.818 592.391C194.741 587.94 196.741 582.024 195.581 574.99C195.206 574.86 194.831 574.723 194.458 574.579C184.328 570.683 175.339 561.909 170.206 541.377C170.2 541.351 170.194 541.325 170.189 541.299L139.618 529.677ZM173.628 542.606C178.644 561.004 186.836 568.433 195.535 571.779C196.034 571.971 196.536 572.15 197.041 572.317C197.253 572.339 197.456 572.405 197.636 572.509C201.58 573.739 205.67 574.276 209.755 574.642L210.032 574.666L210.219 574.682C210.086 574.39 209.956 574.098 209.829 573.806C206.811 566.842 205.717 559.821 205.716 554.805L173.628 542.606ZM274.419 431.532C275.65 429.871 276.818 428.092 277.917 426.218C283.784 416.211 287.455 403.834 288.014 393.207C288.469 384.57 287.089 377.59 284.969 371.911C283.248 377.323 280.561 382.693 276.701 387.875C276.314 388.395 275.655 388.592 275.068 388.416C274.476 388.593 273.811 388.391 273.426 387.864C269.264 382.168 266.401 376.157 264.602 370.062C262.079 376.056 260.319 383.609 260.824 393.207C261.383 403.834 265.054 416.211 270.921 426.218C272.02 428.092 273.188 429.871 274.419 431.532ZM266.606 365.867C268.102 372.412 270.823 378.895 275.075 385.009C279.095 379.336 281.665 373.437 283.076 367.515C280.655 362.571 277.804 358.809 275.588 355.885L275.587 355.885L275.587 355.885L275.586 355.883L275.585 355.882L275.581 355.877C275.17 355.334 274.78 354.82 274.419 354.332C274.057 354.822 273.665 355.338 273.252 355.883L273.251 355.885L273.251 355.885L273.25 355.886C271.287 358.475 268.825 361.723 266.606 365.867ZM208.736 555.953C208.891 560.481 209.96 566.562 212.582 572.613C212.921 573.397 213.287 574.18 213.679 574.958C217.129 575.224 220.548 575.498 223.675 576.124C233.393 578.067 239.285 582.357 241.613 587.37C243.441 591.308 242.956 595.462 240.667 598.784C246.835 604.07 250.314 609.708 251.883 614.863C253.053 618.709 253.157 622.284 252.503 625.207C251.857 628.093 250.428 630.496 248.382 631.724C244.534 634.032 240.154 632.756 237.942 629.946C236.819 628.518 236.227 626.659 236.583 624.673C236.94 622.691 238.203 620.781 240.408 619.142C241.073 618.648 242.012 618.786 242.507 619.451C243.001 620.116 242.862 621.055 242.198 621.55C240.442 622.854 239.725 624.151 239.536 625.204C239.348 626.253 239.645 627.258 240.3 628.091C241.645 629.8 244.378 630.627 246.838 629.151C247.946 628.486 249.039 626.948 249.576 624.551C250.104 622.191 250.05 619.145 249.013 615.737C247.631 611.196 244.496 606.01 238.69 601.04C238.537 601.18 238.379 601.318 238.217 601.453C236.944 602.514 235.152 603.258 233.263 603.648C231.358 604.043 229.228 604.103 227.211 603.685C225.193 603.266 223.215 602.351 221.734 600.729C220.234 599.087 219.358 596.841 219.358 593.993C219.358 593.165 220.029 592.493 220.858 592.493C221.686 592.493 222.358 593.165 222.358 593.993C222.358 596.191 223.017 597.685 223.95 598.707C224.902 599.749 226.252 600.422 227.82 600.747C229.389 601.073 231.102 601.032 232.656 600.711C234.228 600.386 235.514 599.8 236.296 599.148L236.314 599.134C233.929 597.339 231.171 595.588 227.992 593.923C220.427 589.96 215.244 584.058 211.8 577.823C211.04 577.763 210.269 577.7 209.487 577.63C205.992 577.317 202.354 576.871 198.741 575.94C199.563 583.252 197.311 589.561 193.068 594.374C188.394 599.677 181.38 603.087 173.599 604.152C171.644 604.419 169.637 604.54 167.6 604.504C170.07 624.61 175.491 638.558 182.472 647.952C189.936 657.996 199.249 662.923 208.903 664.595C218.598 666.274 228.703 664.678 237.667 661.543C246.634 658.407 254.349 653.768 259.236 649.492C260.299 648.561 261.359 647.589 262.412 646.578C262.202 645.976 262.002 645.363 261.812 644.742C259.781 638.084 258.919 630.253 260.49 622.145C250.966 606.262 243.765 587.487 241.311 568.337L208.736 555.953ZM272.907 634.927C269.666 630.808 266.562 626.342 263.667 621.601C264.093 619.688 264.668 617.762 265.408 615.838C267.887 609.393 270.542 605.585 273.644 601.516C277.266 605.618 280.315 609.4 282.791 615.838C283.173 616.831 283.511 617.823 283.806 618.815C280.45 624.598 276.777 630.01 272.907 634.927ZM285.176 648.239C285.643 648.664 286.11 649.082 286.578 649.492C291.465 653.768 299.18 658.407 308.147 661.543C317.111 664.678 327.217 666.274 336.911 664.595C346.566 662.923 355.878 657.996 363.342 647.952C370.324 638.557 375.745 624.608 378.215 604.5C376.106 604.548 374.027 604.429 372.004 604.152C364.224 603.087 357.209 599.677 352.535 594.374C348.293 589.561 346.04 583.252 346.863 575.94C343.394 576.834 339.903 577.281 336.537 577.591C333.094 583.912 327.877 589.911 320.218 593.923C316.52 595.86 313.389 597.914 310.756 600.019C311.388 600.302 312.129 600.541 312.948 600.711C314.502 601.032 316.215 601.073 317.784 600.747C319.351 600.422 320.702 599.749 321.654 598.707C322.586 597.685 323.246 596.191 323.246 593.993C323.246 593.165 323.917 592.493 324.746 592.493C325.574 592.493 326.246 593.165 326.246 593.993C326.246 596.841 325.369 599.087 323.869 600.729C322.389 602.351 320.411 603.266 318.393 603.685C316.376 604.103 314.246 604.043 312.34 603.648C310.872 603.345 309.463 602.828 308.31 602.114C303.273 606.752 300.48 611.522 299.197 615.737C298.16 619.145 298.107 622.191 298.635 624.551C299.171 626.948 300.265 628.486 301.372 629.151C303.832 630.627 306.565 629.8 307.911 628.091C308.566 627.258 308.863 626.253 308.674 625.204C308.485 624.151 307.768 622.854 306.013 621.55C305.348 621.055 305.21 620.116 305.704 619.451C306.198 618.786 307.138 618.648 307.803 619.142C310.007 620.781 311.271 622.691 311.627 624.673C311.984 626.659 311.392 628.518 310.268 629.946C308.057 632.756 303.676 634.032 299.829 631.724C297.783 630.496 296.353 628.093 295.707 625.207C295.053 622.284 295.157 618.709 296.327 614.863C297.762 610.149 300.795 605.031 306.02 600.147C302.833 596.647 301.902 591.867 303.991 587.37C306.318 582.357 312.211 578.067 321.929 576.124C325.158 575.478 328.699 575.206 332.264 574.932L332.28 574.931C333.066 574.87 333.853 574.81 334.638 574.745C334.99 574.037 335.32 573.326 335.629 572.613C338.542 565.89 339.537 559.128 339.493 554.504L304.574 567.779C302.333 585.956 295.797 603.819 287.037 619.215C289.47 628.356 288.662 637.285 286.387 644.742C286.021 645.943 285.615 647.111 285.176 648.239ZM301.391 568.989L290.572 573.101C284.855 586.419 280.068 593.129 275.922 598.551C275.783 598.733 275.644 598.913 275.507 599.092C279.347 603.417 282.835 607.597 285.591 614.761C285.659 614.936 285.725 615.111 285.79 615.286C293.426 601.249 299.155 585.268 301.391 568.989ZM286.638 574.597L274.212 579.321C273.893 580.049 273.056 580.406 272.305 580.12L272.208 580.083L272.11 580.12C271.359 580.406 270.522 580.049 270.203 579.321L259.318 575.183C264.355 586.036 269.094 591.844 273.332 596.647L273.476 596.81L273.539 596.728C277.285 591.829 281.561 585.874 286.638 574.597ZM255.352 573.675C261 586.658 266.359 593.278 271.082 598.632C271.261 598.834 271.438 599.034 271.614 599.232C268.31 603.54 265.332 607.68 262.608 614.761C262.197 615.828 261.834 616.896 261.516 617.961C253.228 603.455 246.94 586.679 244.502 569.55L255.352 573.675ZM342.462 553.375C342.464 553.391 342.465 553.408 342.465 553.424C342.685 558.479 341.688 566.176 338.382 573.806C338.293 574.01 338.203 574.214 338.111 574.418C341.439 574.054 344.752 573.512 347.967 572.509C348.148 572.405 348.35 572.339 348.563 572.317C349.067 572.15 349.569 571.971 350.069 571.779C358.846 568.403 367.108 560.869 372.111 542.103L342.462 553.375ZM332.903 577.893L332.339 577.936C328.83 578.206 325.553 578.458 322.517 579.065C313.313 580.906 308.484 584.816 306.712 588.633C305.17 591.955 305.802 595.488 308.275 598.169C311.197 595.76 314.689 593.432 318.826 591.265C325.166 587.944 329.714 583.13 332.903 577.893ZM375.433 540.841L407.836 528.522C399.347 534.367 393.501 540.401 389.317 548.715C383.618 560.04 381.083 575.452 378.706 600.018C378.683 600.249 378.661 600.479 378.638 600.708C378.611 600.969 378.585 601.23 378.557 601.489C376.465 601.56 374.406 601.453 372.411 601.18C365.212 600.194 358.902 597.061 354.786 592.391C350.863 587.94 348.863 582.024 350.022 574.99C350.398 574.86 350.772 574.723 351.146 574.579C361.276 570.683 370.264 561.909 375.397 541.377C375.442 541.196 375.453 541.015 375.433 540.841ZM207.551 23.6746C209.088 20.6803 210.874 17.9694 212.843 15.5699C219.594 15.618 224.022 18.1473 227.089 21.569C230.125 24.9551 231.904 29.3014 233.139 33.3094C225.833 35.6417 215.345 38.8342 204.215 31.9247C205.114 28.9864 206.24 26.2293 207.551 23.6746ZM190.378 26.5494C185.219 24.2669 179.795 23.265 174.738 23.2511C166.772 23.2291 159.985 25.6502 156.585 29.0502C153.464 32.171 150.935 34.9846 148.295 41.5761C146.964 44.898 145.608 49.1762 144.151 54.923C153.419 55.9126 162.206 56.3953 171.252 51.8724C179.785 47.6059 183.543 40.054 187.349 32.4039L187.349 32.4037L187.35 32.4024C187.803 31.4916 188.257 30.5795 188.72 29.6714C189.255 28.6212 189.803 27.5758 190.378 26.5494ZM271.091 22.6474L271.101 22.6386L271.109 22.6315C271.532 22.2531 271.926 21.9008 272.278 21.5753C272.683 21.9621 273.131 22.3787 273.612 22.8255L273.613 22.8263C274.982 24.0984 276.144 25.6154 277.502 27.3875L277.503 27.388C278.126 28.201 278.79 29.0676 279.534 29.9889C282.757 33.9788 285.351 38.6952 285.351 43.8737C285.351 55.4852 280.379 61.2284 274.582 67.9245L274.581 67.9262L274.576 67.9319C273.908 68.7038 273.229 69.4884 272.545 70.2961C271.859 69.4858 271.178 68.6988 270.507 67.9245C264.711 61.2284 259.739 55.4852 259.739 43.8737C259.739 38.5867 261.795 33.8245 264.383 29.8673C266.305 26.927 269.037 24.4841 271.09 22.6487L271.091 22.6474ZM263.114 116.877C264.177 127.242 267.734 136.465 272.545 144.901C277.356 136.465 280.913 127.242 281.976 116.877C283.222 104.726 282.277 96.028 280.221 89.3669C278.364 83.3498 275.577 78.9149 272.545 75.0351C269.512 78.9149 266.725 83.3498 264.868 89.3669C262.813 96.028 261.868 104.726 263.114 116.877ZM381.597 601.263C393.705 599.869 406.447 592.486 414.228 576.924C421.327 562.726 427.069 552.637 432.335 545.474C425.755 538.969 421.333 531.498 419.231 526.452C418.981 525.854 419.149 525.185 419.6 524.77C405.454 532.809 397.295 539.534 391.996 550.064C386.586 560.815 384.075 575.677 381.692 600.307L381.665 600.58L381.636 600.879L381.619 601.04L381.597 601.263ZM440.901 540.036C439.416 541.487 437.91 543.175 436.357 545.142C442.805 550.922 451.084 555.46 461.05 555.913C481.397 556.838 493.768 549.923 498.138 545.893C492.93 538.827 481.023 529.822 462.35 531.156C453.75 531.77 447.508 533.578 440.901 540.036ZM215.439 578.107C218.621 583.261 223.131 587.989 229.384 591.265C232.787 593.048 235.754 594.939 238.325 596.895C239.944 594.421 240.2 591.451 238.892 588.633C237.12 584.816 232.29 580.906 223.086 579.065C220.687 578.586 218.136 578.327 215.439 578.107ZM109.247 545.142C107.694 543.175 106.188 541.487 104.703 540.036C98.0952 533.578 91.8536 531.77 83.2536 531.156C64.581 529.822 52.6739 538.827 47.4657 545.893C51.8358 549.923 64.2068 556.838 84.5538 555.913C94.5191 555.46 102.799 550.922 109.247 545.142ZM395.191 466.211C395.817 466.208 396.38 466.594 396.601 467.18L414.262 513.854C414.415 514.26 414.385 514.714 414.179 515.096C413.973 515.479 413.61 515.753 413.186 515.848C377.454 523.835 325.129 535.985 274.917 568.623C274.485 568.904 273.938 568.943 273.47 568.726C256.679 560.961 228.829 548.925 201.146 538.077C173.421 527.212 146.006 517.595 130.019 514.597C129.578 514.515 129.197 514.239 128.981 513.845C128.765 513.452 128.736 512.983 128.903 512.566L146.563 468.415C146.79 467.848 147.337 467.476 147.948 467.472L395.191 466.211ZM148.973 470.467L132.36 512.001C148.852 515.401 175.534 524.818 202.24 535.284C229.568 545.993 257.06 557.857 273.978 565.656C323.676 533.55 375.298 521.262 410.844 513.298L394.164 469.216L148.973 470.467ZM267.884 482.201C267.526 481.454 266.631 481.138 265.883 481.495C265.136 481.853 264.82 482.748 265.177 483.496C267.328 487.992 268.905 497.993 267.412 508.043C265.922 518.074 261.456 527.658 252.034 531.941C245.498 534.912 238.714 534.913 232.027 531.643C225.382 528.395 218.732 521.863 212.587 511.553C213.221 507.16 214.159 501.392 216.739 496.651C218.067 494.21 219.804 492.095 222.113 490.587C224.411 489.086 227.36 488.131 231.211 488.131C237.13 488.132 240.637 490.156 242.764 492.616C244.941 495.133 245.819 498.276 246.121 500.693C246.72 505.488 245.79 508.51 244.38 510.304C242.979 512.087 240.928 512.884 238.78 512.884C236.274 512.884 234.297 511.814 233.301 510.146C232.316 508.498 232.08 505.908 233.814 502.44C234.184 501.699 233.884 500.798 233.143 500.427C232.402 500.057 231.501 500.357 231.131 501.098C229.08 505.199 229.072 508.917 230.725 511.684C232.366 514.43 235.434 515.883 238.779 515.884C241.676 515.884 244.671 514.79 246.739 512.157C248.799 509.536 249.76 505.62 249.098 500.321C248.755 497.578 247.741 493.784 245.033 490.654C242.276 487.466 237.906 485.132 231.211 485.131C226.834 485.131 223.304 486.226 220.472 488.075C217.651 489.918 215.607 492.454 214.104 495.217C211.952 499.172 210.856 503.699 210.177 507.56C204.582 498.581 199.066 491.884 193.469 488.01C190.292 485.811 187.039 484.485 183.695 484.212C180.34 483.937 177.009 484.731 173.71 486.587C162.839 492.702 161.203 503.745 164.413 512.37C167.564 520.834 175.771 527.718 185.011 524.638C191.619 522.435 193.351 516.17 192.478 511.283C192.042 508.84 190.933 506.52 189.246 505.053C187.475 503.513 185.093 502.969 182.605 504.213C181.864 504.583 181.563 505.484 181.934 506.225C182.304 506.966 183.205 507.267 183.946 506.896C185.242 506.248 186.329 506.492 187.278 507.317C188.311 508.215 189.173 509.838 189.525 511.81C190.229 515.752 188.808 520.21 184.062 521.792C177.026 524.137 170.096 519.037 167.224 511.323C164.413 503.769 165.869 494.44 175.181 489.202C178.027 487.6 180.766 486.982 183.45 487.202C186.148 487.423 188.906 488.5 191.762 490.477C197.516 494.46 203.454 501.946 209.734 512.622C216.13 523.495 223.259 530.696 230.709 534.339C238.213 538.007 245.936 538.008 253.275 534.672C264.037 529.78 268.822 518.971 270.38 508.484C270.404 508.317 270.428 508.15 270.452 507.984C270.482 507.767 270.511 507.55 270.538 507.333C270.587 507.717 270.639 508.101 270.696 508.484C272.255 518.971 277.039 529.78 287.801 534.672C295.14 538.008 302.863 538.007 310.367 534.339C317.817 530.696 324.946 523.495 331.342 512.622C337.622 501.946 343.56 494.46 349.315 490.477C352.17 488.5 354.928 487.423 357.626 487.202C360.311 486.982 363.049 487.6 365.895 489.202C375.207 494.44 376.663 503.769 373.852 511.323C370.98 519.037 364.05 524.137 357.014 521.792C352.268 520.21 350.847 515.752 351.551 511.81C351.903 509.838 352.765 508.215 353.798 507.317C354.747 506.492 355.834 506.248 357.13 506.896C357.871 507.267 358.772 506.966 359.142 506.225C359.513 505.484 359.212 504.583 358.471 504.213C355.983 502.969 353.601 503.513 351.83 505.053C350.143 506.52 349.034 508.84 348.598 511.283C347.725 516.17 349.457 522.435 356.065 524.638C365.306 527.718 373.512 520.834 376.663 512.37C379.873 503.745 378.237 492.702 367.366 486.587C364.067 484.731 360.736 483.937 357.381 484.212C354.037 484.485 350.784 485.811 347.607 488.01C342.01 491.884 336.494 498.581 330.899 507.56C330.22 503.699 329.124 499.172 326.972 495.217C325.469 492.454 323.425 489.918 320.604 488.075C317.772 486.226 314.242 485.131 309.865 485.131C303.17 485.132 298.8 487.466 296.043 490.654C293.335 493.784 292.321 497.578 291.978 500.321C291.316 505.62 292.277 509.536 294.337 512.157C296.405 514.79 299.4 515.884 302.297 515.884C305.642 515.883 308.71 514.43 310.351 511.684C312.004 508.917 311.996 505.199 309.946 501.098C309.575 500.357 308.674 500.057 307.933 500.427C307.192 500.798 306.892 501.699 307.262 502.44C308.996 505.908 308.76 508.498 307.775 510.146C306.779 511.814 304.802 512.884 302.296 512.884C300.148 512.884 298.097 512.087 296.696 510.304C295.286 508.51 294.356 505.488 294.955 500.693C295.257 498.276 296.135 495.133 298.312 492.616C300.44 490.156 303.946 488.132 309.865 488.131C313.717 488.131 316.665 489.086 318.963 490.587C321.272 492.095 323.009 494.21 324.337 496.651C326.917 501.392 327.855 507.16 328.489 511.553C322.344 521.863 315.694 528.395 309.049 531.643C302.362 534.913 295.578 534.912 289.042 531.941C279.62 527.658 275.154 518.074 273.664 508.043C272.171 497.993 273.748 487.992 275.899 483.496C276.256 482.748 275.94 481.853 275.193 481.495C274.445 481.138 273.55 481.454 273.192 482.201C272.035 484.621 271.074 488.237 270.538 492.471C270.002 488.237 269.041 484.621 267.884 482.201ZM336.944 17.8205C338.403 19.825 339.738 21.992 340.925 24.3048C342.183 26.7558 343.277 29.3739 344.177 32.1422C344.512 31.8873 344.847 31.6226 345.183 31.3479C347.1 29.7796 349.11 28.4381 351.178 27.3055C349.984 25.4801 348.678 23.8384 347.151 22.4427C344.613 20.1231 341.407 18.4337 336.944 17.8205ZM447.917 81.0511C447.853 80.7627 447.787 80.4756 447.718 80.1897C446.57 79.912 445.402 79.6468 444.213 79.3946C431.936 76.7902 420.2 76.3382 409.159 77.5326C409.245 77.9853 409.331 78.4428 409.418 78.9051C411.204 88.4332 417.973 95.6765 426.012 100.102C433.705 104.338 442.271 105.836 448.269 104.461C449.371 98.1357 449.729 89.2412 447.917 81.0511ZM444.836 76.4599C432.136 73.7658 419.999 73.316 408.591 74.5761C407.461 68.7773 406.4 63.8112 405.384 59.5304C414.836 58.4833 424.077 57.6175 433.863 61.6469C440.483 64.373 444.518 70.0696 446.778 76.8872C446.136 76.7409 445.489 76.5985 444.836 76.4599ZM356.715 93.7493C370.509 84.5669 387.052 77.5064 405.607 74.9467C404.464 69.0899 403.396 64.1159 402.379 59.8629C392.934 60.8874 383.226 61.5618 373.214 56.5557C363.727 51.8122 359.52 43.3167 355.765 35.734L355.765 35.7338L355.764 35.7322L355.762 35.7293L355.761 35.7271L355.759 35.7232C355.307 34.8106 354.862 33.9112 354.415 33.0333C353.86 31.9453 353.304 30.8898 352.732 29.8753C350.781 30.9354 348.886 32.1946 347.083 33.6698C346.413 34.2179 345.743 34.7294 345.076 35.2064C346.366 40.1188 347.057 45.4518 346.998 51.1212C349.398 52.2255 351.442 53.6488 353.156 55.3331C356.798 58.9114 358.841 63.5559 359.75 68.5106C361.283 76.872 359.628 86.323 356.715 93.7493ZM332.965 17.5699C334.934 19.9694 336.719 22.6803 338.256 25.6746C339.567 28.2293 340.694 30.9864 341.593 33.9247C330.462 40.8342 319.974 37.6417 312.668 35.3094C313.903 31.3014 315.683 26.9551 318.718 23.569C321.785 20.1473 326.213 17.618 332.965 17.5699ZM371.069 25.2511C366.012 25.265 360.589 26.2669 355.429 28.5494C356.004 29.5758 356.553 30.6212 357.088 31.6714C357.55 32.5793 358.004 33.4912 358.457 34.4018L358.458 34.4038C362.265 42.054 366.022 49.6059 374.555 53.8724C383.601 58.3953 392.389 57.9126 401.656 56.923C400.2 51.1762 398.843 46.898 397.512 43.5761C394.872 36.9846 392.343 34.171 389.223 31.0502C385.823 27.6502 379.035 25.2291 371.069 25.2511ZM539.377 315.36C542.137 302.669 540.802 288.207 535.756 275.043C532.603 279.929 528.644 284.819 523.795 289.669C521.852 291.611 519.993 293.492 518.214 295.315C519.984 298.619 521.914 302.011 524.018 305.492C529.416 314.427 532.439 322.74 533.553 330.449C536.261 325.911 538.193 320.806 539.377 315.36ZM530.213 345.624C530.654 343.47 530.93 341.243 531.02 338.942C527.183 343.21 522.448 346.739 516.772 349.246C514.508 350.247 512.321 351.222 510.211 352.175C511.018 360.42 511.184 368.235 510.71 375.509C511.451 374.881 512.179 374.242 512.895 373.592C521.42 365.841 527.971 356.566 530.213 345.624ZM502.318 401.084C504.555 395.52 506.138 389.185 507.049 382.197C500.367 387.075 493.13 391.165 486.194 394.525C486.659 397.267 487.141 400.14 487.633 403.158C488.664 409.495 488.655 415.293 487.837 420.581C494.117 416.071 498.952 409.454 502.318 401.084ZM469.969 447.275C475.794 441.88 480.718 435.078 483.357 426.65C479.595 428.386 475.452 429.554 470.933 430.096C465.775 430.715 460.751 431.5 456.044 432.586C456.368 435.657 456.727 438.895 457.108 442.317C457.674 447.41 457.808 452.026 457.588 456.202C461.84 453.813 466.103 450.855 469.969 447.275ZM447.557 478.881C450.533 474.751 452.992 469.064 454.083 461.379C448.266 464.114 442.749 465.834 438.511 466.681C438.113 466.761 437.699 466.675 437.365 466.445C437.031 466.214 436.804 465.857 436.738 465.457C435.52 458.152 434.812 449.901 435.211 441.784C434.392 442.476 433.623 443.206 432.906 443.977C425.269 452.19 423.088 465.662 432.597 488.789C436.957 488.092 442.925 485.309 447.557 478.881ZM439.448 463.407C438.291 455.866 437.728 447.496 438.366 439.455C441.445 437.461 445.021 435.854 448.973 434.544C450.313 434.1 451.692 433.692 453.104 433.315C453.419 436.28 453.764 439.387 454.126 442.648C454.761 448.359 454.832 453.405 454.472 457.856C448.978 460.606 443.671 462.417 439.448 463.407ZM439.99 428.983C439.459 431.165 439.052 433.419 438.754 435.716C441.596 434.112 444.719 432.794 448.03 431.697C449.574 431.185 451.163 430.72 452.79 430.295C451.98 422.345 451.434 415.46 451.415 409.384C445.517 414.035 441.938 420.975 439.99 428.983ZM454.429 407.431L454.43 407.331C456.157 406.323 458.048 405.482 460.113 404.83C465.711 403.062 474.164 400.117 483.377 395.858C483.798 398.351 484.232 400.942 484.672 403.64C485.825 410.728 485.609 417.085 484.381 422.768C480.299 425.028 475.695 426.503 470.576 427.117C465.496 427.727 460.484 428.502 455.733 429.579C454.886 421.216 454.35 414.14 454.421 407.965C454.422 407.843 454.424 407.721 454.426 407.599L454.429 407.431ZM459.5 385.837C456.496 390.983 455.022 396.741 454.57 403.842C456.017 403.117 457.562 402.49 459.21 401.969C464.927 400.164 473.548 397.147 482.857 392.791L482.794 392.424L482.794 392.422C481.351 383.927 480.107 376.599 479.379 370.018C479.3 369.302 479.227 368.595 479.16 367.895C478.811 368.108 478.466 368.321 478.126 368.534C468.897 374.301 463.071 379.716 459.5 385.837ZM482.361 369.688C482.229 368.498 482.115 367.335 482.02 366.195C488.808 362.266 497.138 358.141 507.322 353.487C508.13 362.295 508.183 370.546 507.5 378.107C500.639 383.414 493.014 387.839 485.671 391.442C484.264 383.158 483.068 376.081 482.361 369.688ZM483.194 345.414C481.834 350.969 481.475 356.59 481.794 362.867C488.671 358.969 496.992 354.892 507.003 350.336C506.694 347.542 506.312 344.696 505.855 341.801L505.854 341.793L505.85 341.77C504.533 332.086 502.695 323.145 500.403 314.897C490.617 326.806 485.479 336.086 483.194 345.414ZM508.821 341.349C507.38 330.766 505.323 321.042 502.731 312.117C506.514 307.678 510.917 302.873 516.024 297.574C517.693 300.658 519.499 303.814 521.45 307.044C527.503 317.063 530.391 326.131 530.95 334.316C527.034 339.487 521.921 343.692 515.56 346.502C513.61 347.364 511.715 348.208 509.875 349.036C509.582 346.511 509.231 343.948 508.821 341.349ZM452.562 240.363C473.497 253.986 491.364 275.673 501.702 308.708C505.425 304.414 509.685 299.807 514.542 294.788C502.399 271.533 498.076 252.475 497.491 236.952C485.004 233.114 469.947 233.484 452.562 240.363ZM516.747 292.524C505.433 270.598 501.263 252.622 500.539 237.99C501.542 238.366 502.527 238.77 503.494 239.2C517.673 245.505 528.157 257.581 534.346 271.618L534.352 271.633C531.156 276.923 526.974 282.247 521.673 287.547C519.97 289.25 518.329 290.908 516.747 292.524ZM504.713 236.458C503.319 235.839 501.893 235.272 500.433 234.761C500.431 234.616 500.429 234.471 500.427 234.326L500.426 234.255L500.424 234.038C500.293 218.839 503.798 207.448 506.431 198.889C506.919 197.301 507.378 195.811 507.777 194.412C508.149 193.11 508.582 191.47 509.033 189.539C522.605 197.833 534.238 210.456 539.616 225.249C544.361 238.303 544.281 253.165 536.179 268.415C529.652 254.681 519.018 242.82 504.713 236.458ZM451.465 169.684C452.146 169.833 452.826 169.985 453.505 170.139C454.607 173.689 454.775 177.987 454.017 181.916C453.705 183.532 453.246 185.042 452.656 186.387C452.667 185.497 452.542 184.542 452.287 183.522C450.95 178.171 447.956 173.534 444.665 170.079C443.959 169.337 443.231 168.643 442.496 168.002L451.465 169.684ZM446.707 193.526L446.678 193.562C446.268 194.069 445.805 194.67 445.311 195.31L445.31 195.312L445.31 195.312L445.309 195.314C444.977 195.744 444.632 196.192 444.279 196.642C442.472 198.948 440.244 201.609 437.488 203.88C434.739 206.145 431.506 207.987 427.699 208.702C424.282 209.343 420.306 209.095 415.676 207.307C418.121 203.434 422.918 198.213 429.713 196.703C432.228 196.144 434.811 195.775 437.332 195.414L437.641 195.37L438.096 195.304C440.819 194.913 443.489 194.505 445.739 193.839C446.066 193.742 446.389 193.638 446.707 193.526ZM453.143 254.251C453.247 253.694 453.656 253.244 454.2 253.086C454.744 252.929 455.331 253.092 455.716 253.507C458.562 256.571 462.512 262.084 465.246 268.783C467.979 275.48 469.551 283.504 467.419 291.496C467.278 292.024 466.861 292.434 466.33 292.565C465.799 292.697 465.239 292.529 464.868 292.127C462.223 289.262 458.529 283.998 455.874 277.382C453.216 270.759 451.562 262.684 453.143 254.251ZM462.468 269.916C464.697 275.378 466.024 281.573 465.128 287.755C463.007 284.968 460.555 280.99 458.658 276.265C456.502 270.891 455.092 264.622 455.647 258.079C457.93 261.032 460.526 265.156 462.468 269.916ZM99.1002 193.526L99.1291 193.562C99.5396 194.07 100.003 194.671 100.497 195.312L100.497 195.312L100.498 195.313C100.829 195.743 101.175 196.192 101.528 196.642C103.335 198.948 105.564 201.609 108.319 203.88C111.069 206.145 114.301 207.987 118.108 208.702C121.526 209.343 125.502 209.095 130.131 207.307C127.686 203.434 122.889 198.213 116.094 196.703C113.579 196.144 110.997 195.775 108.475 195.414L108.475 195.414L107.896 195.331L107.711 195.304C104.989 194.913 102.318 194.505 100.068 193.839C99.7414 193.742 99.4182 193.638 99.1002 193.526ZM92.6647 254.251C92.5603 253.694 92.1512 253.244 91.6071 253.086C91.063 252.929 90.4766 253.092 90.0912 253.507C87.2453 256.571 83.295 262.084 80.5615 268.783C77.8284 275.48 76.2568 283.504 78.3881 291.496C78.529 292.024 78.9464 292.434 79.4773 292.565C80.0083 292.697 80.5686 292.529 80.9396 292.127C83.5839 289.262 87.2783 283.998 89.9334 277.382C92.5912 270.759 94.2457 262.684 92.6647 254.251ZM83.3391 269.916C81.1103 275.378 79.7835 281.573 80.6794 287.755C82.8004 284.968 85.2528 280.99 87.1492 276.265C89.3057 270.891 90.7154 264.622 90.16 258.079C87.8776 261.032 85.2814 265.156 83.3391 269.916ZM390.485 132.097C390.528 132.028 390.572 131.959 390.616 131.89C393.92 126.719 399.106 122.091 407.701 118.407C412.981 116.143 419.616 115.818 425.608 116.714C428.59 117.16 431.365 117.902 433.679 118.823C435.293 119.466 436.637 120.178 437.664 120.907L437.444 121.122C434.304 124.19 429.931 128.465 422.371 131.186C415.226 133.757 405.125 134.961 390.485 132.097ZM75.9192 123.737C75.8795 124.186 75.8785 124.633 75.9103 125.076L75.865 125.007L75.8162 124.933C73.2126 120.953 71.6497 116.422 72.4784 112.279C73.317 108.086 75.2177 105.147 78.0355 102.092C79.0685 104.78 80.0966 107.769 80.5659 110.562C81.1803 114.218 80.7381 116.912 78.9006 118.382C77.0077 119.896 76.0937 121.768 75.9192 123.737ZM469.888 123.737C469.928 124.186 469.929 124.633 469.897 125.076C469.922 125.038 469.948 125 469.973 124.961L469.991 124.933C472.595 120.953 474.158 116.422 473.329 112.279C472.49 108.086 470.59 105.147 467.772 102.092C466.739 104.78 465.711 107.769 465.242 110.562C464.627 114.218 465.069 116.912 466.907 118.382C468.8 119.896 469.714 121.768 469.888 123.737ZM155.62 131.888C155.664 131.957 155.708 132.026 155.751 132.095C141.111 134.959 131.01 133.755 123.865 131.184C116.305 128.463 111.932 124.189 108.792 121.12L108.572 120.905C109.599 120.176 110.943 119.464 112.556 118.821C114.871 117.9 117.646 117.158 120.628 116.712C126.62 115.816 133.255 116.141 138.534 118.405C147.13 122.089 152.316 126.717 155.62 131.888Z" fill="url(#paint0_linear)"/>
<path d="M293.837 199.079H263.572L262.03 221.82H262.705C263.412 220.394 264.183 219.066 265.018 217.835C265.853 216.604 266.817 215.568 267.91 214.725C269.002 213.883 270.255 213.235 271.669 212.782C273.147 212.263 274.914 212.004 276.97 212.004C279.861 212.004 282.56 212.49 285.066 213.462C287.572 214.434 289.725 215.859 291.524 217.738C293.388 219.552 294.833 221.787 295.861 224.444C296.954 227.1 297.5 230.113 297.5 233.482C297.5 236.915 296.954 240.058 295.861 242.908C294.769 245.759 293.163 248.254 291.042 250.392C288.922 252.465 286.319 254.085 283.235 255.251C280.151 256.417 276.616 257 272.633 257C269.548 257 266.785 256.644 264.343 255.931C261.902 255.283 259.749 254.376 257.886 253.21C256.022 252.044 254.416 250.715 253.066 249.225C251.717 247.67 250.528 246.051 249.5 244.366L258.753 237.175C259.524 238.47 260.327 239.701 261.163 240.868C261.998 241.969 262.962 242.941 264.054 243.783C265.211 244.625 266.464 245.306 267.813 245.824C269.227 246.277 270.865 246.504 272.729 246.504C276.52 246.504 279.38 245.435 281.307 243.297C283.299 241.159 284.295 238.244 284.295 234.551V233.773C284.295 230.275 283.299 227.521 281.307 225.513C279.315 223.504 276.552 222.5 273.018 222.5C270.255 222.5 268.006 223.051 266.271 224.152C264.536 225.189 263.155 226.323 262.127 227.554L251.717 226.096L254.223 188H293.837V199.079Z" fill="white"/>
<path d="M222.557 306.231V297.629L215.047 284.318H219.698L224.756 293.579H224.819L229.752 284.318H234.277L226.736 297.598V306.231H222.557Z" fill="white"/>
<path d="M241.761 306.607C240.546 306.607 239.457 306.408 238.493 306.011C237.551 305.592 236.744 305.017 236.074 304.284C235.424 303.531 234.922 302.631 234.566 301.584C234.209 300.517 234.031 299.324 234.031 298.006C234.031 296.708 234.199 295.536 234.534 294.49C234.89 293.443 235.393 292.554 236.042 291.821C236.692 291.068 237.488 290.492 238.43 290.095C239.373 289.676 240.441 289.467 241.635 289.467C242.913 289.467 244.023 289.687 244.966 290.126C245.908 290.566 246.683 291.162 247.291 291.916C247.898 292.669 248.349 293.548 248.642 294.553C248.956 295.536 249.113 296.593 249.113 297.723V299.042H238.21V299.45C238.21 300.643 238.546 301.605 239.216 302.338C239.886 303.049 240.881 303.405 242.201 303.405C243.206 303.405 244.023 303.196 244.652 302.777C245.301 302.359 245.877 301.825 246.38 301.176L248.548 303.594C247.877 304.535 246.956 305.278 245.783 305.822C244.631 306.346 243.29 306.607 241.761 306.607ZM241.698 292.481C240.63 292.481 239.781 292.836 239.153 293.548C238.525 294.26 238.21 295.18 238.21 296.311V296.562H244.934V296.279C244.934 295.149 244.652 294.239 244.086 293.548C243.541 292.836 242.745 292.481 241.698 292.481Z" fill="white"/>
<path d="M264.717 306.231C263.837 306.231 263.136 305.979 262.612 305.477C262.109 304.954 261.795 304.263 261.669 303.405H261.481C261.209 304.473 260.654 305.278 259.816 305.822C258.978 306.346 257.941 306.607 256.705 306.607C255.029 306.607 253.741 306.168 252.84 305.289C251.94 304.41 251.489 303.238 251.489 301.773C251.489 300.078 252.097 298.822 253.312 298.006C254.527 297.169 256.255 296.75 258.496 296.75H261.292V295.557C261.292 294.636 261.051 293.925 260.57 293.422C260.088 292.92 259.313 292.669 258.245 292.669C257.302 292.669 256.537 292.878 255.951 293.297C255.385 293.694 254.904 294.176 254.506 294.741L252.118 292.606C252.725 291.664 253.532 290.911 254.537 290.346C255.542 289.76 256.873 289.467 258.527 289.467C260.748 289.467 262.434 289.969 263.586 290.974C264.738 291.978 265.314 293.422 265.314 295.306V303.029H266.948V306.231H264.717ZM258.056 303.688C258.957 303.688 259.721 303.489 260.35 303.091C260.978 302.694 261.292 302.108 261.292 301.333V299.167H258.716C256.621 299.167 255.574 299.837 255.574 301.176V301.71C255.574 302.38 255.783 302.882 256.202 303.217C256.642 303.531 257.26 303.688 258.056 303.688Z" fill="white"/>
<path d="M270.203 306.231V289.844H274.225V293.234H274.382C274.487 292.795 274.644 292.376 274.853 291.978C275.084 291.56 275.377 291.193 275.733 290.88C276.089 290.566 276.508 290.314 276.99 290.126C277.493 289.938 278.069 289.844 278.718 289.844H279.598V293.642H278.341C276.979 293.642 275.953 293.841 275.262 294.239C274.571 294.636 274.225 295.285 274.225 296.185V306.231H270.203Z" fill="white"/>
<path d="M287.911 306.607C286.34 306.607 285.02 306.346 283.952 305.822C282.884 305.278 281.941 304.535 281.124 303.594L283.575 301.208C284.182 301.898 284.842 302.443 285.554 302.84C286.288 303.238 287.125 303.437 288.068 303.437C289.032 303.437 289.723 303.269 290.142 302.934C290.582 302.6 290.802 302.139 290.802 301.553C290.802 301.072 290.645 300.695 290.33 300.423C290.037 300.13 289.524 299.931 288.791 299.826L287.157 299.607C285.376 299.377 284.015 298.874 283.072 298.1C282.151 297.305 281.69 296.154 281.69 294.647C281.69 293.851 281.836 293.14 282.13 292.512C282.423 291.863 282.842 291.319 283.386 290.88C283.931 290.419 284.58 290.074 285.334 289.844C286.11 289.592 286.968 289.467 287.911 289.467C288.707 289.467 289.409 289.53 290.016 289.655C290.645 289.76 291.21 289.927 291.713 290.158C292.216 290.367 292.676 290.639 293.095 290.974C293.514 291.288 293.923 291.643 294.321 292.041L291.964 294.396C291.482 293.893 290.906 293.475 290.236 293.14C289.566 292.805 288.833 292.638 288.037 292.638C287.157 292.638 286.518 292.795 286.12 293.108C285.743 293.422 285.554 293.83 285.554 294.333C285.554 294.877 285.712 295.295 286.026 295.588C286.361 295.861 286.916 296.059 287.691 296.185L289.356 296.405C292.896 296.907 294.666 298.518 294.666 301.239C294.666 302.034 294.499 302.767 294.164 303.437C293.849 304.085 293.399 304.65 292.813 305.132C292.226 305.592 291.514 305.959 290.676 306.231C289.859 306.482 288.937 306.607 287.911 306.607Z" fill="white"/>
<path d="M312.147 306.607C310.974 306.607 309.916 306.408 308.974 306.011C308.052 305.613 307.256 305.038 306.586 304.284C305.936 303.531 305.434 302.631 305.078 301.584C304.722 300.517 304.543 299.324 304.543 298.006C304.543 296.687 304.722 295.505 305.078 294.458C305.434 293.412 305.936 292.522 306.586 291.79C307.256 291.037 308.052 290.461 308.974 290.063C309.916 289.666 310.974 289.467 312.147 289.467C313.32 289.467 314.378 289.666 315.321 290.063C316.263 290.461 317.059 291.037 317.709 291.79C318.379 292.522 318.892 293.412 319.248 294.458C319.604 295.505 319.782 296.687 319.782 298.006C319.782 299.324 319.604 300.517 319.248 301.584C318.892 302.631 318.379 303.531 317.709 304.284C317.059 305.038 316.263 305.613 315.321 306.011C314.378 306.408 313.32 306.607 312.147 306.607ZM312.147 303.374C313.216 303.374 314.053 303.049 314.661 302.401C315.268 301.752 315.572 300.8 315.572 299.544V296.499C315.572 295.264 315.268 294.322 314.661 293.674C314.053 293.025 313.216 292.7 312.147 292.7C311.1 292.7 310.272 293.025 309.665 293.674C309.058 294.322 308.754 295.264 308.754 296.499V299.544C308.754 300.8 309.058 301.752 309.665 302.401C310.272 303.049 311.1 303.374 312.147 303.374Z" fill="white"/>
<path d="M323.981 293.014H321.561V289.844H323.981V287.489C323.981 286.045 324.358 284.936 325.112 284.162C325.887 283.387 327.018 283 328.505 283H331.365V286.202H328.003V289.844H331.365V293.014H328.003V306.231H323.981V293.014Z" fill="white"/>
<path d="M126.5 315.711H134.481C135.905 315.711 137.193 315.941 138.346 316.402C139.519 316.862 140.514 317.553 141.33 318.474C142.168 319.374 142.807 320.514 143.247 321.896C143.708 323.256 143.938 324.846 143.938 326.667C143.938 328.488 143.708 330.089 143.247 331.47C142.807 332.831 142.168 333.971 141.33 334.892C140.514 335.792 139.519 336.472 138.346 336.933C137.193 337.393 135.905 337.623 134.481 337.623H126.5V315.711ZM134.481 333.95C136.031 333.95 137.256 333.5 138.157 332.6C139.079 331.68 139.54 330.277 139.54 328.394V324.941C139.54 323.057 139.079 321.665 138.157 320.765C137.256 319.845 136.031 319.384 134.481 319.384H130.648V333.95H134.481Z" fill="white"/>
<path d="M146.309 321.236H150.174L151.839 327.986L153.127 333.605H153.253L154.761 327.986L156.678 321.236H160.323L162.302 327.986L163.842 333.605H163.967L165.256 327.986L166.89 321.236H170.629L166.136 337.623H161.799L159.694 330.403L158.469 325.945H158.375L157.181 330.403L155.107 337.623H150.834L146.309 321.236Z" fill="white"/>
<path d="M185.322 337.623C184.442 337.623 183.741 337.372 183.217 336.87C182.714 336.347 182.4 335.656 182.274 334.798H182.086C181.814 335.865 181.258 336.671 180.421 337.215C179.583 337.738 178.546 338 177.31 338C175.634 338 174.346 337.561 173.445 336.682C172.544 335.803 172.094 334.631 172.094 333.166C172.094 331.47 172.702 330.215 173.917 329.398C175.131 328.561 176.86 328.143 179.101 328.143H181.897V326.95C181.897 326.029 181.656 325.317 181.175 324.815C180.693 324.313 179.918 324.062 178.85 324.062C177.907 324.062 177.142 324.271 176.556 324.69C175.99 325.087 175.508 325.568 175.11 326.134L172.723 323.999C173.33 323.057 174.136 322.304 175.142 321.739C176.147 321.153 177.477 320.86 179.132 320.86C181.353 320.86 183.039 321.362 184.191 322.366C185.343 323.371 185.919 324.815 185.919 326.699V334.421H187.553V337.623H185.322ZM178.661 335.08C179.562 335.08 180.326 334.882 180.955 334.484C181.583 334.086 181.897 333.5 181.897 332.726V330.56H179.321C177.226 330.56 176.179 331.23 176.179 332.569V333.103C176.179 333.772 176.388 334.275 176.807 334.61C177.247 334.924 177.865 335.08 178.661 335.08Z" fill="white"/>
<path d="M190.808 337.623V321.236H194.83V324.627H194.987C195.092 324.187 195.249 323.769 195.458 323.371C195.689 322.952 195.982 322.586 196.338 322.272C196.694 321.958 197.113 321.707 197.595 321.519C198.098 321.33 198.674 321.236 199.323 321.236H200.203V325.035H198.946C197.584 325.035 196.558 325.234 195.867 325.631C195.175 326.029 194.83 326.678 194.83 327.578V337.623H190.808Z" fill="white"/>
<path d="M206.908 337.623L201.44 321.236H205.399L207.693 328.3L209.296 334.139H209.515L211.118 328.3L213.349 321.236H217.182L211.683 337.623H206.908Z" fill="white"/>
<path d="M226.25 338C225.035 338 223.946 337.801 222.982 337.404C222.04 336.985 221.233 336.409 220.563 335.677C219.914 334.924 219.411 334.024 219.055 332.977C218.699 331.91 218.521 330.717 218.521 329.398C218.521 328.101 218.688 326.929 219.023 325.882C219.379 324.836 219.882 323.947 220.532 323.214C221.181 322.461 221.977 321.885 222.919 321.487C223.862 321.069 224.93 320.86 226.124 320.86C227.402 320.86 228.512 321.079 229.455 321.519C230.398 321.958 231.173 322.555 231.78 323.308C232.388 324.062 232.838 324.941 233.131 325.945C233.445 326.929 233.602 327.986 233.602 329.116V330.434H222.7V330.842C222.7 332.035 223.035 332.998 223.705 333.731C224.375 334.442 225.37 334.798 226.69 334.798C227.695 334.798 228.512 334.589 229.141 334.17C229.79 333.752 230.366 333.218 230.869 332.569L233.037 334.986C232.367 335.928 231.445 336.671 230.272 337.215C229.12 337.738 227.779 338 226.25 338ZM226.187 323.873C225.119 323.873 224.271 324.229 223.642 324.941C223.014 325.652 222.7 326.573 222.7 327.703V327.954H229.424V327.672C229.424 326.542 229.141 325.631 228.575 324.941C228.031 324.229 227.235 323.873 226.187 323.873Z" fill="white"/>
<path d="M242.514 338C240.943 338 239.623 337.738 238.555 337.215C237.487 336.671 236.544 335.928 235.727 334.986L238.178 332.6C238.785 333.291 239.445 333.835 240.157 334.233C240.89 334.631 241.728 334.829 242.671 334.829C243.635 334.829 244.326 334.662 244.745 334.327C245.185 333.992 245.405 333.532 245.405 332.946C245.405 332.464 245.247 332.088 244.933 331.816C244.64 331.523 244.127 331.324 243.394 331.219L241.76 330.999C239.979 330.769 238.618 330.267 237.675 329.493C236.753 328.697 236.293 327.546 236.293 326.039C236.293 325.244 236.439 324.533 236.732 323.905C237.026 323.256 237.445 322.712 237.989 322.272C238.534 321.812 239.183 321.467 239.937 321.236C240.712 320.985 241.571 320.86 242.514 320.86C243.31 320.86 244.012 320.922 244.619 321.048C245.247 321.153 245.813 321.32 246.316 321.55C246.818 321.76 247.279 322.032 247.698 322.366C248.117 322.68 248.526 323.036 248.924 323.434L246.567 325.788C246.085 325.286 245.509 324.867 244.839 324.533C244.169 324.198 243.436 324.03 242.64 324.03C241.76 324.03 241.121 324.187 240.723 324.501C240.346 324.815 240.157 325.223 240.157 325.725C240.157 326.27 240.314 326.688 240.629 326.981C240.964 327.253 241.519 327.452 242.294 327.578L243.959 327.797C247.499 328.3 249.269 329.911 249.269 332.632C249.269 333.427 249.102 334.16 248.767 334.829C248.452 335.478 248.002 336.043 247.415 336.525C246.829 336.985 246.117 337.351 245.279 337.623C244.462 337.874 243.54 338 242.514 338Z" fill="white"/>
<path d="M260.497 337.623V315.711H274.605V319.384H264.645V324.69H273.317V328.362H264.645V337.623H260.497Z" fill="white"/>
<path d="M283.933 338C282.76 338 281.702 337.801 280.76 337.404C279.838 337.006 279.042 336.43 278.372 335.677C277.722 334.924 277.22 334.024 276.864 332.977C276.507 331.91 276.329 330.717 276.329 329.398C276.329 328.08 276.507 326.897 276.864 325.851C277.22 324.805 277.722 323.915 278.372 323.183C279.042 322.429 279.838 321.854 280.76 321.456C281.702 321.058 282.76 320.86 283.933 320.86C285.106 320.86 286.164 321.058 287.107 321.456C288.049 321.854 288.845 322.429 289.495 323.183C290.165 323.915 290.678 324.805 291.034 325.851C291.39 326.897 291.568 328.08 291.568 329.398C291.568 330.717 291.39 331.91 291.034 332.977C290.678 334.024 290.165 334.924 289.495 335.677C288.845 336.43 288.049 337.006 287.107 337.404C286.164 337.801 285.106 338 283.933 338ZM283.933 334.767C285.002 334.767 285.839 334.442 286.447 333.793C287.054 333.145 287.358 332.192 287.358 330.937V327.892C287.358 326.657 287.054 325.715 286.447 325.066C285.839 324.417 285.002 324.093 283.933 324.093C282.886 324.093 282.058 324.417 281.451 325.066C280.844 325.715 280.54 326.657 280.54 327.892V330.937C280.54 332.192 280.844 333.145 281.451 333.793C282.058 334.442 282.886 334.767 283.933 334.767Z" fill="white"/>
<path d="M304.937 334.892H304.78C304.633 335.311 304.434 335.708 304.183 336.085C303.953 336.441 303.649 336.765 303.272 337.058C302.916 337.351 302.476 337.581 301.952 337.749C301.449 337.916 300.863 338 300.193 338C298.496 338 297.197 337.445 296.296 336.336C295.396 335.227 294.945 333.647 294.945 331.596V321.236H298.967V331.188C298.967 332.318 299.187 333.186 299.627 333.793C300.067 334.379 300.769 334.672 301.732 334.672C302.13 334.672 302.518 334.62 302.895 334.515C303.293 334.411 303.638 334.254 303.932 334.045C304.225 333.814 304.466 333.542 304.654 333.228C304.843 332.893 304.937 332.506 304.937 332.067V321.236H308.959V337.623H304.937V334.892Z" fill="white"/>
<path d="M313.606 337.623V321.236H317.628V323.967H317.785C318.12 323.088 318.643 322.356 319.356 321.77C320.089 321.163 321.094 320.86 322.372 320.86C324.069 320.86 325.367 321.414 326.268 322.523C327.169 323.633 327.619 325.213 327.619 327.264V337.623H323.597V327.672C323.597 326.5 323.388 325.621 322.969 325.035C322.55 324.449 321.859 324.156 320.895 324.156C320.476 324.156 320.068 324.219 319.67 324.344C319.293 324.449 318.947 324.616 318.633 324.846C318.34 325.056 318.099 325.328 317.91 325.663C317.722 325.977 317.628 326.353 317.628 326.793V337.623H313.606Z" fill="white"/>
<path d="M342.258 334.892H342.101C341.807 335.834 341.252 336.587 340.435 337.152C339.618 337.717 338.665 338 337.576 338C335.502 338 333.91 337.257 332.8 335.771C331.711 334.285 331.166 332.161 331.166 329.398C331.166 326.657 331.711 324.553 332.8 323.088C333.91 321.603 335.502 320.86 337.576 320.86C338.665 320.86 339.618 321.142 340.435 321.707C341.252 322.251 341.807 322.994 342.101 323.936H342.258V314.393H346.28V337.623H342.258V334.892ZM338.864 334.672C339.828 334.672 340.634 334.442 341.284 333.982C341.933 333.521 342.258 332.862 342.258 332.004V326.793C342.258 325.998 341.933 325.359 341.284 324.878C340.634 324.397 339.828 324.156 338.864 324.156C337.817 324.156 336.969 324.512 336.319 325.223C335.691 325.914 335.377 326.845 335.377 328.017V330.842C335.377 332.014 335.691 332.946 336.319 333.636C336.969 334.327 337.817 334.672 338.864 334.672Z" fill="white"/>
<path d="M362.983 337.623C362.103 337.623 361.402 337.372 360.878 336.87C360.375 336.347 360.061 335.656 359.935 334.798H359.747C359.474 335.865 358.919 336.671 358.081 337.215C357.244 337.738 356.207 338 354.971 338C353.295 338 352.007 337.561 351.106 336.682C350.205 335.803 349.755 334.631 349.755 333.166C349.755 331.47 350.362 330.215 351.577 329.398C352.792 328.561 354.52 328.143 356.762 328.143H359.558V326.95C359.558 326.029 359.317 325.317 358.836 324.815C358.354 324.313 357.579 324.062 356.51 324.062C355.568 324.062 354.803 324.271 354.217 324.69C353.651 325.087 353.169 325.568 352.771 326.134L350.383 323.999C350.991 323.057 351.797 322.304 352.803 321.739C353.808 321.153 355.138 320.86 356.793 320.86C359.014 320.86 360.7 321.362 361.852 322.366C363.004 323.371 363.58 324.815 363.58 326.699V334.421H365.214V337.623H362.983ZM356.322 335.08C357.223 335.08 357.987 334.882 358.616 334.484C359.244 334.086 359.558 333.5 359.558 332.726V330.56H356.982C354.887 330.56 353.84 331.23 353.84 332.569V333.103C353.84 333.772 354.049 334.275 354.468 334.61C354.908 334.924 355.526 335.08 356.322 335.08Z" fill="white"/>
<path d="M373.468 337.623C372.085 337.623 371.027 337.268 370.294 336.556C369.582 335.823 369.226 334.787 369.226 333.448V324.438H366.807V321.236H368.063C368.671 321.236 369.079 321.1 369.289 320.828C369.519 320.535 369.634 320.106 369.634 319.541V316.747H373.248V321.236H376.61V324.438H373.248V334.421H376.358V337.623H373.468Z" fill="white"/>
<path d="M382.109 318.85C381.271 318.85 380.664 318.662 380.287 318.285C379.931 317.909 379.753 317.427 379.753 316.841V316.213C379.753 315.627 379.931 315.146 380.287 314.769C380.664 314.393 381.271 314.204 382.109 314.204C382.926 314.204 383.523 314.393 383.9 314.769C384.277 315.146 384.466 315.627 384.466 316.213V316.841C384.466 317.427 384.277 317.909 383.9 318.285C383.523 318.662 382.926 318.85 382.109 318.85ZM380.098 321.236H384.12V337.623H380.098V321.236Z" fill="white"/>
<path d="M395.286 338C394.113 338 393.055 337.801 392.112 337.404C391.191 337.006 390.395 336.43 389.724 335.677C389.075 334.924 388.572 334.024 388.216 332.977C387.86 331.91 387.682 330.717 387.682 329.398C387.682 328.08 387.86 326.897 388.216 325.851C388.572 324.805 389.075 323.915 389.724 323.183C390.395 322.429 391.191 321.854 392.112 321.456C393.055 321.058 394.113 320.86 395.286 320.86C396.459 320.86 397.517 321.058 398.459 321.456C399.402 321.854 400.198 322.429 400.847 323.183C401.518 323.915 402.031 324.805 402.387 325.851C402.743 326.897 402.921 328.08 402.921 329.398C402.921 330.717 402.743 331.91 402.387 332.977C402.031 334.024 401.518 334.924 400.847 335.677C400.198 336.43 399.402 337.006 398.459 337.404C397.517 337.801 396.459 338 395.286 338ZM395.286 334.767C396.354 334.767 397.192 334.442 397.799 333.793C398.407 333.145 398.711 332.192 398.711 330.937V327.892C398.711 326.657 398.407 325.715 397.799 325.066C397.192 324.417 396.354 324.093 395.286 324.093C394.238 324.093 393.411 324.417 392.804 325.066C392.196 325.715 391.892 326.657 391.892 327.892V330.937C391.892 332.192 392.196 333.145 392.804 333.793C393.411 334.442 394.238 334.767 395.286 334.767Z" fill="white"/>
<path d="M406.486 337.623V321.236H410.508V323.967H410.665C411.001 323.088 411.524 322.356 412.236 321.77C412.97 321.163 413.975 320.86 415.253 320.86C416.949 320.86 418.248 321.414 419.149 322.523C420.05 323.633 420.5 325.213 420.5 327.264V337.623H416.478V327.672C416.478 326.5 416.269 325.621 415.85 325.035C415.431 324.449 414.74 324.156 413.776 324.156C413.357 324.156 412.949 324.219 412.551 324.344C412.174 324.449 411.828 324.616 411.514 324.846C411.22 325.056 410.98 325.328 410.791 325.663C410.603 325.977 410.508 326.353 410.508 326.793V337.623H406.486Z" fill="white"/>
<defs>
<linearGradient id="paint0_linear" x1="336.532" y1="4" x2="336.532" y2="727" gradientUnits="userSpaceOnUse">
<stop stop-color="#FF6B88"/>
<stop offset="0.75" stop-color="#5A48A3"/>
<stop offset="1" stop-color="#458FA6"/>
<stop offset="1" stop-color="#249CC1"/>
</linearGradient>
</defs>
</svg>
